<svg width="30" height="30" viewBox="0 0 30 30" fill="none" xmlns="http://www.w3.org/2000/svg">
<mask id="mask0_1_427" style="mask-type:luminance" maskUnits="userSpaceOnUse" x="0" y="0" width="30" height="30">
<path d="M30 0H0V30H30V0Z" fill="white"/>
</mask>
<g mask="url(#mask0_1_427)">
<path d="M15 0C13.1639 0 11.403 0.729393 10.1046 2.02772C8.80632 3.32605 8.07692 5.08696 8.07692 6.92308C8.07692 10.7469 14.0988 20.2419 14.0988 25.3846H15.9012C15.9012 20.2592 21.9231 10.4354 21.9231 6.92308C21.9231 5.08696 21.1937 3.32605 19.8954 2.02772C18.597 0.729393 16.8361 0 15 0ZM15 3.46154C15.9181 3.46154 16.7985 3.82624 17.4477 4.4754C18.0968 5.12456 18.4615 6.00502 18.4615 6.92308C18.4615 7.84113 18.0968 8.72159 17.4477 9.37075C16.7985 10.0199 15.9181 10.3846 15 10.3846C14.0819 10.3846 13.2015 10.0199 12.5523 9.37075C11.9032 8.72159 11.5385 7.84113 11.5385 6.92308C11.5385 6.00502 11.9032 5.12456 12.5523 4.4754C13.2015 3.82624 14.0819 3.46154 15 3.46154ZM7.89692 19.9396L7.82423 19.9765C5.69538 20.3504 3.89077 20.8627 2.52462 21.5631C1.84038 21.9127 1.25077 22.3269 0.793846 22.8242C0.335769 23.3227 0 23.97 0 24.6992C0 25.7931 0.724615 26.6481 1.58654 27.2596C2.44846 27.8712 3.53654 28.3385 4.86808 28.7377C7.52769 29.5362 11.0827 30 15 30C18.9173 30 22.4723 29.5362 25.1319 28.7377C26.4623 28.3385 27.5515 27.8723 28.4135 27.2596C29.2754 26.6469 30 25.7931 30 24.6992C30 23.9677 29.6654 23.2869 29.2062 22.7885C28.7469 22.29 28.1631 21.9127 27.4754 21.5619C26.1023 20.8615 24.2804 20.3492 22.1388 19.9754C21.9883 19.9462 21.8334 19.9473 21.6833 19.9787C21.5331 20.0101 21.3908 20.0711 21.2645 20.1581C21.1382 20.2452 21.0305 20.3565 20.9478 20.4857C20.865 20.6148 20.8089 20.7591 20.7826 20.9102C20.7563 21.0613 20.7603 21.2162 20.7946 21.3657C20.8288 21.5152 20.8925 21.6564 20.9819 21.781C21.0714 21.9056 21.1847 22.0111 21.3154 22.0914C21.4461 22.1716 21.5915 22.225 21.7431 22.2485C23.7312 22.5946 25.3835 23.085 26.43 23.6181C26.9538 23.8835 27.3219 24.1685 27.5123 24.375C27.7027 24.5815 27.6923 24.6635 27.6923 24.6992C27.6923 24.7535 27.6185 25.0027 27.0796 25.3846C26.5408 25.7665 25.6223 26.1854 24.4465 26.5385C22.0962 27.2435 18.7292 27.6923 15 27.6923C11.2708 27.6923 7.90385 27.2435 5.55231 26.5385C4.37769 26.1854 3.45923 25.7665 2.92154 25.3846C2.38154 25.0027 2.30769 24.7535 2.30769 24.6992C2.30769 24.6646 2.29962 24.5804 2.48769 24.375C2.67692 24.1696 3.04962 23.8835 3.57 23.6181C4.60846 23.0862 6.24462 22.5958 8.22115 22.2473C8.37491 22.2286 8.5234 22.1795 8.65795 22.1028C8.79249 22.0261 8.9104 21.9233 9.00477 21.8005C9.09915 21.6777 9.16809 21.5373 9.20758 21.3875C9.24707 21.2378 9.25631 21.0816 9.23476 20.9283C9.21321 20.7749 9.1613 20.6274 9.08208 20.4943C9.00285 20.3612 8.89788 20.2452 8.77332 20.1532C8.64876 20.0611 8.5071 19.9948 8.35662 19.9582C8.20615 19.9215 8.04987 19.9152 7.89692 19.9396Z" fill="black"/>
</g>
</svg>
