<svg width="30" height="30" viewBox="0 0 30 30" fill="none" xmlns="http://www.w3.org/2000/svg">
<path fill-rule="evenodd" clip-rule="evenodd" d="M14.661 21.1798V17.166C14.661 17.0733 14.6978 16.9846 14.7633 16.9191C14.8287 16.8536 14.9176 16.8169 15.0101 16.8169H17.273C17.7654 16.8169 18.1701 17.0417 18.4312 17.4603L20.4356 20.6735C20.5137 20.7987 20.6231 21.0331 20.6231 21.1798C20.6231 21.2256 20.6141 21.271 20.5965 21.3134C20.5791 21.3558 20.5533 21.3942 20.5209 21.4267C20.4884 21.4591 20.45 21.4849 20.4077 21.5023C20.3652 21.5199 20.3198 21.5289 20.274 21.5289H15.01C14.9174 21.5289 14.8287 21.4922 14.7632 21.4267C14.6977 21.3612 14.661 21.2724 14.661 21.1798ZM15.3593 17.5151V20.8307H19.7121L17.8393 17.8285C17.7043 17.6122 17.5287 17.5151 17.273 17.5151H15.3593ZM21.2552 23.8226H20.6878C20.6412 23.8226 20.6018 23.862 20.6018 23.9086V24.5539C20.6018 24.6004 20.6412 24.6398 20.6878 24.6398H21.2552V23.8226ZM4.36683 26.691C4.028 26.3521 3.44568 26.593 3.44568 27.0725C3.44568 27.5521 4.028 27.7929 4.36683 27.4541C4.57752 27.2434 4.57752 26.9016 4.36683 26.691ZM3.98526 25.8347C5.08414 25.8347 5.63863 27.1698 4.86054 27.9478C4.08243 28.7259 2.74746 28.1714 2.74746 27.0725C2.74746 26.389 3.30172 25.8347 3.98526 25.8347ZM5.35709 25.7007C5.37969 25.7233 5.40176 25.7465 5.42321 25.7702C6.55154 27.0203 5.65925 29.0125 3.98526 29.0125C2.31128 29.0125 1.42068 27.0201 2.54555 25.7722C3.28771 24.9488 4.57243 24.916 5.35709 25.7007ZM1.44444 26.36C1.49022 26.1964 1.55182 26.0377 1.62834 25.8861H0V26.36H1.44444ZM6.34225 25.8861C6.41875 26.0377 6.48034 26.1964 6.52615 26.36H13.3504V25.8861H6.34225ZM3.98526 24.4343C4.70391 24.4343 5.35539 24.7217 5.83121 25.1878H13.3503V22.43H0V25.1878H2.13926C2.61508 24.7217 3.26668 24.4343 3.98526 24.4343ZM17.8538 26.691C17.5149 26.3521 16.9326 26.593 16.9326 27.0725C16.9326 27.5521 17.5149 27.7929 17.8538 27.4541C18.0644 27.2434 18.0644 26.9016 17.8538 26.691ZM17.4722 25.8347C18.5711 25.8347 19.1256 27.1698 18.3475 27.9478C17.5693 28.7259 16.2343 28.1714 16.2343 27.0725C16.2343 26.389 16.7887 25.8347 17.4722 25.8347ZM18.844 25.7007C19.6016 26.4582 19.6016 27.6868 18.844 28.4443C18.0865 29.2019 16.858 29.2019 16.1004 28.4443C15.3428 27.6868 15.3428 26.4582 16.1004 25.7007C16.8579 24.9431 18.0865 24.9431 18.844 25.7007ZM17.4722 24.4343C18.6692 24.4343 19.6986 25.2365 20.0131 26.36C20.4091 26.36 20.7263 26.4108 21.0161 26.1209C21.2642 25.8727 21.2552 25.6393 21.2552 25.338H20.6878C20.2558 25.338 19.9036 24.9858 19.9036 24.5538V23.9084C19.9036 23.4764 20.2559 23.1243 20.6878 23.1243H21.2552V21.3956C21.2552 21.0052 21.162 20.6787 20.9558 20.3481L18.9514 17.1349C18.5769 16.5346 17.9815 16.2044 17.273 16.2044H14.0486V26.3601H14.9313C15.2458 25.2365 16.2752 24.4343 17.4722 24.4343ZM15.2645 22.8924C15.1719 22.8924 15.0831 22.8556 15.0176 22.7901C14.9521 22.7246 14.9154 22.6358 14.9154 22.5432C14.9154 22.4507 14.9521 22.3618 15.0176 22.2963C15.0831 22.2308 15.1719 22.1941 15.2645 22.1941H15.9647C16.0572 22.1941 16.1461 22.2308 16.2116 22.2963C16.2771 22.3618 16.3138 22.4507 16.3138 22.5432C16.3138 22.6358 16.2771 22.7246 16.2116 22.7901C16.1461 22.8556 16.0572 22.8924 15.9647 22.8924H15.2645ZM10.8741 18.5149L10.37 17.9052L9.86581 18.5148C9.64912 18.7906 9.2367 18.6293 9.2367 18.3062V15.7709H7.38954V21.7317H13.3503V15.8552L13.3518 15.7709H11.5031V18.3062C11.5031 18.642 11.0735 18.7822 10.8741 18.5149ZM9.93498 17.3369V15.7709H10.8049V17.3369L10.6426 17.1407C10.5044 16.9706 10.2436 16.9638 10.1012 17.1358L9.93498 17.3369ZM4.21499 18.5149L3.71087 17.9052L3.20673 18.5148C2.99004 18.7906 2.57762 18.6293 2.57762 18.3062V15.7709H0.730462V21.7317H6.69126V15.7709H4.84411V18.3062C4.84411 18.642 4.41453 18.7822 4.21499 18.5149ZM3.2759 17.3369V15.7709H4.14583V17.3369L3.9835 17.1407C3.84537 16.9706 3.58448 16.9638 3.44216 17.1358L3.2759 17.3369ZM29.0948 3.82579C29.0948 1.71277 27.382 0 25.269 0C23.1561 0 21.4433 1.71277 21.4433 3.82579C21.4433 5.56602 23.8966 8.59734 25.269 10.5054C26.6414 8.59776 29.0948 5.56541 29.0948 3.82579ZM25.7871 1.55785C26.0731 1.84388 26.0731 2.30795 25.7871 2.59399C25.3269 3.05417 24.5364 2.72686 24.5364 2.07592C24.5364 1.42498 25.3269 1.09766 25.7871 1.55785ZM25.269 0.644996C26.5392 0.644996 27.1803 2.18817 26.2808 3.08763C25.3813 3.98708 23.8381 3.34609 23.8381 2.07586C23.8381 1.28569 24.4789 0.644996 25.269 0.644996ZM11.2732 3.46047C9.32902 1.51626 6.17652 1.51626 4.23233 3.46047C2.28813 5.40467 2.28813 8.55715 4.23233 10.5013C6.17652 12.4456 9.32902 12.4456 11.2732 10.5013C13.2174 8.55715 13.2174 5.40467 11.2732 3.46047ZM7.75274 1.304C10.8879 1.304 13.4297 3.84573 13.4297 6.98088C13.4297 10.116 10.8879 12.6577 7.75274 12.6577C4.61759 12.6577 2.07586 10.116 2.07586 6.98088C2.07586 3.84573 4.61759 1.304 7.75274 1.304ZM7.92537 6.80831C8.1534 7.03634 7.8082 7.38154 7.58017 7.15351C7.35214 6.92548 7.69807 6.58101 7.92537 6.80831ZM8.61879 7.35293L9.38787 8.122C9.45177 8.1878 9.48721 8.27609 9.48654 8.3678C9.48586 8.4595 9.44914 8.54727 9.38429 8.61212C9.31944 8.67697 9.23167 8.71371 9.13997 8.71438C9.04825 8.71504 8.95995 8.6796 8.89416 8.61571L8.12522 7.84676C7.50755 8.11297 6.81043 7.65988 6.81043 6.98094C6.81043 6.58938 7.05101 6.24624 7.40361 6.10542V4.0443C7.40361 3.9517 7.44038 3.8629 7.50587 3.79742C7.57134 3.73195 7.66015 3.69516 7.75274 3.69516C7.84534 3.69516 7.93414 3.73195 7.99962 3.79742C8.0651 3.8629 8.10188 3.9517 8.10188 4.0443V6.10542C8.5914 6.30085 8.82901 6.86438 8.61879 7.35293ZM12.5162 2.21745C15.147 4.84817 15.147 9.11365 12.5162 11.7444C9.88552 14.3751 5.62003 14.3751 2.98931 11.7444C0.358594 9.11365 0.358594 4.84817 2.98931 2.21745C5.62003 -0.413268 9.88552 -0.413268 12.5162 2.21745ZM7.40361 3.03222V2.42826H8.10188V3.03222H7.40361ZM3.80409 7.33008H3.20013V6.6318H3.80409V7.33008ZM8.10194 10.9296V11.5336H7.40366V10.9296H8.10194ZM11.7014 6.63174H12.3054V7.33001H11.7014V6.63174ZM23.1659 27.8821C22.6238 27.9389 22.126 27.9583 21.5813 27.9588L21.5794 28.7734C22.1516 28.773 22.6786 28.7523 23.2479 28.6926L23.1659 27.8821ZM25.4264 27.3561C24.9277 27.5557 24.4695 27.6756 23.9415 27.7723L24.0851 28.5743C24.6726 28.4665 25.1768 28.3333 25.7319 28.1113L25.4264 27.3561ZM27.1631 26.0508C26.8781 26.4635 26.5292 26.7646 26.1007 27.0227L26.5166 27.7231C27.0512 27.4011 27.4808 27.0244 27.8363 26.5096L27.1631 26.0508ZM27.6243 23.9886C27.6767 24.4805 27.646 24.9483 27.4823 25.4181L28.2495 25.6919C28.4538 25.1066 28.5002 24.5211 28.4348 23.9069L27.6243 23.9886ZM26.8624 21.8722C27.1337 22.3297 27.3271 22.7501 27.4776 23.261L28.2614 23.0392C28.0981 22.471 27.8635 21.9634 27.5627 21.4559L26.8624 21.8722ZM25.3769 20.1069C25.7853 20.4669 26.0997 20.803 26.4309 21.2349L27.0814 20.7446C26.7146 20.2659 26.3674 19.894 25.915 19.4952L25.3769 20.1069ZM23.4289 18.6118C23.8664 19.0291 24.1616 19.221 24.6438 19.5442L24.7712 19.6316L25.2397 18.9652C24.7745 18.6408 24.4714 18.4804 23.9891 18.0205L23.4289 18.6118ZM21.9518 16.4749C22.1701 17.018 22.4735 17.5191 22.8407 17.9744L23.4734 17.4613C23.1565 17.0682 22.8951 16.6372 22.7066 16.1682L21.9518 16.4749ZM21.6962 13.8374C21.5635 14.4274 21.5728 15.0354 21.6943 15.6263L22.4917 15.4596C22.3938 14.9818 22.3841 14.4916 22.4914 14.0143L21.6962 13.8374ZM23.1055 11.582C22.635 11.9764 22.2671 12.4308 21.9949 12.9823L22.7292 13.335C22.9437 12.8943 23.2573 12.5178 23.6318 12.2038L23.1055 11.582Z" fill="black"/>
</svg>
