<svg width="45" height="45" viewBox="0 0 45 45" fill="none" xmlns="http://www.w3.org/2000/svg">
<path d="M11.9531 31.9922C11.2793 31.9922 10.7007 32.2339 10.2173 32.7173C9.73389 33.2007 9.49219 33.7793 9.49219 34.4531C9.49219 35.127 9.73389 35.7056 10.2173 36.189C10.7007 36.6724 11.2793 36.9141 11.9531 36.9141C12.627 36.9141 13.2056 36.6724 13.689 36.189C14.1724 35.7056 14.4141 35.127 14.4141 34.4531C14.4141 33.7793 14.1724 33.2007 13.689 32.7173C13.2056 32.2339 12.627 31.9922 11.9531 31.9922ZM11.9531 35.5078C11.6602 35.5078 11.4111 35.4053 11.2061 35.2002C11.001 34.9951 10.8984 34.7461 10.8984 34.4531C10.8984 34.1602 11.001 33.9111 11.2061 33.7061C11.4111 33.501 11.6602 33.3984 11.9531 33.3984C12.2461 33.3984 12.4951 33.501 12.7002 33.7061C12.9053 33.9111 13.0078 34.1602 13.0078 34.4531C13.0078 34.7461 12.9053 34.9951 12.7002 35.2002C12.4951 35.4053 12.2461 35.5078 11.9531 35.5078ZM35.1562 31.9922C34.4824 31.9922 33.9038 32.2339 33.4204 32.7173C32.937 33.2007 32.6953 33.7793 32.6953 34.4531C32.6953 35.127 32.937 35.7056 33.4204 36.189C33.9038 36.6724 34.4824 36.9141 35.1562 36.9141C35.8301 36.9141 36.4087 36.6724 36.8921 36.189C37.3755 35.7056 37.6172 35.127 37.6172 34.4531C37.6172 33.7793 37.3755 33.2007 36.8921 32.7173C36.4087 32.2339 35.8301 31.9922 35.1562 31.9922ZM35.1562 35.5078C34.8633 35.5078 34.6143 35.4053 34.4092 35.2002C34.2041 34.9951 34.1016 34.7461 34.1016 34.4531C34.1016 34.1602 34.2041 33.9111 34.4092 33.7061C34.6143 33.501 34.8633 33.3984 35.1562 33.3984C35.4492 33.3984 35.6982 33.501 35.9033 33.7061C36.1084 33.9111 36.2109 34.1602 36.2109 34.4531C36.2109 34.7461 36.1084 34.9951 35.9033 35.2002C35.6982 35.4053 35.4492 35.5078 35.1562 35.5078ZM19.6875 26.7188H21.0938C21.2988 26.7188 21.4673 26.6528 21.5991 26.521C21.731 26.3892 21.7969 26.2207 21.7969 26.0156C21.7969 25.8105 21.731 25.6421 21.5991 25.5103C21.4673 25.3784 21.2988 25.3125 21.0938 25.3125H19.6875C19.4824 25.3125 19.314 25.3784 19.1821 25.5103C19.0503 25.6421 18.9844 25.8105 18.9844 26.0156C18.9844 26.2207 19.0503 26.3892 19.1821 26.521C19.314 26.6528 19.4824 26.7188 19.6875 26.7188ZM44.3408 19.6436C44.0479 18.8525 43.6963 18.0908 43.2861 17.3584C42.876 16.626 42.3926 15.9375 41.8359 15.293L40.21 13.3594H40.7812C40.9863 13.3594 41.1548 13.2935 41.2866 13.1616C41.4185 13.0298 41.4844 12.8613 41.4844 12.6562C41.4844 12.4512 41.4185 12.2827 41.2866 12.1509C41.1548 12.019 40.9863 11.9531 40.7812 11.9531H21.665C20.2881 11.9531 18.9917 12.2974 17.7759 12.9858C16.5601 13.6743 15.6006 14.6045 14.8975 15.7764L11.5576 20.4785L6.1084 21.5332C5.63965 21.6504 5.17822 21.7969 4.72412 21.9727C4.27002 22.1484 3.82324 22.3828 3.38379 22.6758C2.79785 23.0566 2.31445 23.4302 1.93359 23.7964C1.55273 24.1626 1.21582 24.5361 0.922852 24.917C0.74707 25.1807 0.600586 25.4443 0.483398 25.708C0.366211 25.9717 0.27832 26.25 0.219727 26.543C0.131836 26.7773 0.0732422 27.0264 0.0439453 27.29C0.0146484 27.5537 0 27.832 0 28.125V33.75C0 34.5117 0.27832 35.1709 0.834961 35.7275C1.3916 36.2842 2.05078 36.5625 2.8125 36.5625H6.76758C7.17773 37.6172 7.85156 38.4668 8.78906 39.1113C9.72656 39.7559 10.7812 40.0781 11.9531 40.0781C13.125 40.0781 14.1797 39.7559 15.1172 39.1113C16.0547 38.4668 16.7285 37.6172 17.1387 36.5625H29.9707C30.3809 37.6172 31.0547 38.4668 31.9922 39.1113C32.9297 39.7559 33.9844 40.0781 35.1562 40.0781C36.3281 40.0781 37.3828 39.7559 38.3203 39.1113C39.2578 38.4668 39.9316 37.6172 40.3418 36.5625H42.1875C42.5684 36.5625 42.9272 36.4893 43.2642 36.3428C43.6011 36.1963 43.9014 35.9912 44.165 35.7275C44.4287 35.4639 44.6338 35.1636 44.7803 34.8267C44.9268 34.4897 45 34.1309 45 33.75V23.8184C45 23.1152 44.9414 22.4121 44.8242 21.709C44.707 21.0059 44.5459 20.3174 44.3408 19.6436ZM15.8203 16.875H23.2031V21.7969H14.9414L13.0078 20.8301L15.8203 16.875ZM1.40625 28.125C1.40625 28.0078 1.41357 27.8906 1.42822 27.7734C1.44287 27.6562 1.4502 27.5391 1.4502 27.4219H4.04297L3.64746 29.5312H1.40625V28.125ZM6.37207 35.1562H2.8125C2.43164 35.1562 2.10205 35.0171 1.82373 34.7388C1.54541 34.4604 1.40625 34.1309 1.40625 33.75V30.9375H4.21875C4.39453 30.9375 4.54834 30.8862 4.68018 30.7837C4.81201 30.6812 4.89258 30.542 4.92188 30.3662L5.625 26.8506C5.625 26.7627 5.61768 26.6675 5.60303 26.5649C5.58838 26.4624 5.53711 26.3672 5.44922 26.2793C5.39062 26.1914 5.31738 26.1255 5.22949 26.0815C5.1416 26.0376 5.03906 26.0156 4.92188 26.0156H1.93359C1.96289 25.957 2.146 25.6934 2.48291 25.2246C2.81982 24.7559 3.38379 24.3018 4.1748 23.8623C4.52637 23.6279 4.88525 23.4302 5.25146 23.269C5.61768 23.1079 6.00586 22.998 6.41602 22.9395L11.25 21.9727V28.8721C9.87305 29.0479 8.7085 29.6631 7.75635 30.7178C6.8042 31.7725 6.32812 33.0176 6.32812 34.4531C6.32812 34.5703 6.33545 34.6875 6.3501 34.8047C6.36475 34.9219 6.37207 35.0391 6.37207 35.1562ZM15.9961 35.6396C15.7324 36.5479 15.2271 37.2803 14.48 37.8369C13.7329 38.3936 12.8906 38.6719 11.9531 38.6719C11.0156 38.6719 10.1733 38.3936 9.42627 37.8369C8.6792 37.2803 8.17383 36.5479 7.91016 35.6396C7.85156 35.4639 7.80762 35.2734 7.77832 35.0684C7.74902 34.8633 7.73438 34.6582 7.73438 34.4531C7.73438 33.2812 8.14453 32.2852 8.96484 31.4648C9.78516 30.6445 10.7812 30.2344 11.9531 30.2344C13.125 30.2344 14.1211 30.6445 14.9414 31.4648C15.7617 32.2852 16.1719 33.2812 16.1719 34.4531C16.1719 34.6582 16.1572 34.8633 16.1279 35.0684C16.0986 35.2734 16.0547 35.4639 15.9961 35.6396ZM39.1992 35.6396C38.9355 36.5479 38.4302 37.2803 37.6831 37.8369C36.936 38.3936 36.0938 38.6719 35.1562 38.6719C34.2188 38.6719 33.3765 38.3936 32.6294 37.8369C31.8823 37.2803 31.377 36.5479 31.1133 35.6396C31.0547 35.4639 31.0107 35.2734 30.9814 35.0684C30.9521 34.8633 30.9375 34.6582 30.9375 34.4531C30.9375 33.2812 31.3477 32.2852 32.168 31.4648C32.9883 30.6445 33.9844 30.2344 35.1562 30.2344C36.3281 30.2344 37.3242 30.6445 38.1445 31.4648C38.9648 32.2852 39.375 33.2812 39.375 34.4531C39.375 34.6582 39.3604 34.8633 39.3311 35.0684C39.3018 35.2734 39.2578 35.4639 39.1992 35.6396ZM43.5938 28.4766L41.4844 27.6416V26.0156H43.5938V28.4766ZM43.5938 24.6094H40.7812C40.5762 24.6094 40.4077 24.6753 40.2759 24.8071C40.144 24.939 40.0781 25.1074 40.0781 25.3125V28.125C40.0781 28.2715 40.1221 28.4033 40.21 28.5205C40.2979 28.6377 40.4004 28.7256 40.5176 28.7842L43.5938 30.0146V33.75C43.5938 33.9258 43.5571 34.1016 43.4839 34.2773C43.4106 34.4531 43.3154 34.6143 43.1982 34.7607C43.0518 34.8779 42.8906 34.9731 42.7148 35.0464C42.5391 35.1196 42.3633 35.1562 42.1875 35.1562H40.7373C40.7373 35.0391 40.7446 34.9219 40.7593 34.8047C40.7739 34.6875 40.7812 34.5703 40.7812 34.4531C40.7812 32.9004 40.2319 31.5747 39.1333 30.4761C38.0347 29.3774 36.709 28.8281 35.1562 28.8281C33.6035 28.8281 32.2778 29.3774 31.1792 30.4761C30.0806 31.5747 29.5312 32.9004 29.5312 34.4531C29.5312 34.5703 29.5386 34.6875 29.5532 34.8047C29.5679 34.9219 29.5752 35.0391 29.5752 35.1562H17.5342C17.5342 35.0391 17.5415 34.9219 17.5562 34.8047C17.5708 34.6875 17.5781 34.5703 17.5781 34.4531C17.5781 33.0176 17.1021 31.7725 16.1499 30.7178C15.1978 29.6631 14.0332 29.0479 12.6562 28.8721V22.2363L14.5898 23.2031H23.2031V32.3438C23.2031 32.5488 23.269 32.7173 23.4009 32.8491C23.5327 32.981 23.7012 33.0469 23.9062 33.0469C24.1113 33.0469 24.2798 32.981 24.4116 32.8491C24.5435 32.7173 24.6094 32.5488 24.6094 32.3438V23.2031H40.0781C40.2832 23.2031 40.4517 23.1372 40.5835 23.0054C40.7153 22.8735 40.7812 22.7051 40.7812 22.5V19.4238L37.793 15.7324C37.7344 15.6445 37.6611 15.5786 37.5732 15.5347C37.4854 15.4907 37.3828 15.4688 37.2656 15.4688H16.875C17.4902 14.8242 18.2153 14.3115 19.0503 13.9307C19.8853 13.5498 20.7568 13.3594 21.665 13.3594H38.3643L40.7812 16.1719C41.543 17.0801 42.1582 18.0835 42.627 19.1821C43.0957 20.2808 43.4033 21.4453 43.5498 22.6758C43.5791 22.8809 43.5938 23.0786 43.5938 23.269C43.5938 23.4595 43.5938 23.6426 43.5938 23.8184V24.6094ZM24.6094 21.7969V16.875H30.9375V21.7969H24.6094ZM32.3438 21.7969V16.875H36.9141L39.375 19.9512V21.7969H32.3438Z" fill="white"/>
</svg>
