<svg width="30" height="30" viewBox="0 0 30 30" fill="none" xmlns="http://www.w3.org/2000/svg">
<path d="M29.9414 22.4707H27.7148C27.6562 21.6895 27.3389 21.0254 26.7627 20.4785C26.1865 19.9316 25.5078 19.6582 24.7266 19.6582H22.5879V19.3359C22.9785 19.0625 23.291 18.7109 23.5254 18.2812C23.7598 17.8516 23.877 17.3828 23.877 16.875V14.9707C23.877 14.1309 23.584 13.418 22.998 12.832C22.4121 12.2461 21.6992 11.9531 20.8594 11.9531C20.0391 11.9531 19.3359 12.2461 18.75 12.832C18.1641 13.418 17.8711 14.1309 17.8711 14.9707V16.875C17.8711 17.3828 17.9883 17.8516 18.2227 18.2812C18.457 18.7109 18.7695 19.0625 19.1602 19.3359V19.6582H17.0215C16.6113 19.6582 16.2256 19.7363 15.8643 19.8926C15.5029 20.0488 15.1855 20.2637 14.9121 20.5371V20.127C15.2832 20.0488 15.5859 19.8633 15.8203 19.5703C16.0547 19.2773 16.1719 18.9355 16.1719 18.5449V17.373C16.1719 17.002 16.0498 16.6699 15.8057 16.377C15.5615 16.084 15.2637 15.8984 14.9121 15.8203V13.125H10.9277V14.0332C10.8105 13.9355 10.6836 13.8525 10.5469 13.7842C10.4102 13.7158 10.2637 13.6719 10.1074 13.6523C10.4004 13.3594 10.6348 13.0273 10.8105 12.6562C10.9863 12.2852 11.0742 11.875 11.0742 11.4258V9.52148C11.0742 8.68164 10.7812 7.96875 10.1953 7.38281C9.60938 6.79688 8.89648 6.50391 8.05664 6.50391C7.23633 6.50391 6.5332 6.79688 5.94727 7.38281C5.36133 7.96875 5.06836 8.68164 5.06836 9.52148V11.4258C5.06836 11.875 5.15625 12.29 5.33203 12.6709C5.50781 13.0518 5.74219 13.3789 6.03516 13.6523C5.72266 13.7305 5.43945 13.8721 5.18555 14.0771C4.93164 14.2822 4.72656 14.5215 4.57031 14.7949H4.21875C3.39844 14.7949 2.69043 15.0928 2.09473 15.6885C1.49902 16.2842 1.20117 16.9922 1.20117 17.8125V22.4707H0.0585938V25.9863H1.37695V30H27.7148V25.9863H29.9414V22.4707ZM20.8594 12.832C21.2695 12.832 21.6406 12.9346 21.9727 13.1396C22.3047 13.3447 22.5586 13.6133 22.7344 13.9453C22.5391 14.2773 22.2754 14.541 21.9434 14.7363C21.6113 14.9316 21.25 15.0293 20.8594 15.0293C20.4883 15.0293 20.1367 14.9316 19.8047 14.7363C19.4727 14.541 19.209 14.2773 19.0137 13.9453C19.1895 13.6133 19.4434 13.3447 19.7754 13.1396C20.1074 12.9346 20.4688 12.832 20.8594 12.832ZM18.75 16.875V15.0293C19.0234 15.3027 19.3457 15.5176 19.7168 15.6738C20.0879 15.8301 20.4688 15.9082 20.8594 15.9082C21.2695 15.9082 21.6602 15.8301 22.0312 15.6738C22.4023 15.5176 22.7246 15.3027 22.998 15.0293V16.875C22.998 17.4609 22.7881 17.9639 22.3682 18.3838C21.9482 18.8037 21.4453 19.0137 20.8594 19.0137C20.2734 19.0137 19.7754 18.8037 19.3652 18.3838C18.9551 17.9639 18.75 17.4609 18.75 16.875ZM20.8594 19.8926C21.0156 19.8926 21.1621 19.8828 21.2988 19.8633C21.4355 19.8438 21.5723 19.8145 21.709 19.7754V20.7422C21.709 20.9766 21.626 21.1768 21.46 21.3428C21.2939 21.5088 21.1035 21.5918 20.8887 21.5918C20.6543 21.5918 20.4541 21.5088 20.2881 21.3428C20.1221 21.1768 20.0391 20.9766 20.0391 20.7422V19.7754C20.1758 19.8145 20.3125 19.8438 20.4492 19.8633C20.5859 19.8828 20.7227 19.8926 20.8594 19.8926ZM14.0332 22.4707H9.93164L9.58008 19.8047L10.0781 17.9883H12.2461V18.5449C12.2461 18.9941 12.4023 19.375 12.7148 19.6875C13.0273 20 13.4082 20.1562 13.8574 20.1562H14.0332C14.0332 20.1562 14.0332 20.5371 14.0332 21.2988C14.0332 22.0605 14.0332 22.4512 14.0332 22.4707ZM7.23633 14.4727H8.90625V15.1465L8.05664 16.6406L7.23633 15.1465V14.4727ZM9.16992 17.9883L8.78906 19.3652H7.29492L6.94336 17.9883H9.16992ZM7.06055 22.4707L7.35352 20.2441H8.75977L9.05273 22.4707H7.06055ZM15.293 17.373V18.5449C15.293 18.7598 15.2197 18.9355 15.0732 19.0723C14.9268 19.209 14.7559 19.2773 14.5605 19.2773H13.8574C13.6621 19.2773 13.4912 19.209 13.3447 19.0723C13.1982 18.9355 13.125 18.7598 13.125 18.5449V17.373C13.125 17.1777 13.1982 17.0068 13.3447 16.8604C13.4912 16.7139 13.6621 16.6406 13.8574 16.6406H14.5605C14.7559 16.6406 14.9268 16.7139 15.0732 16.8604C15.2197 17.0068 15.293 17.1777 15.293 17.373ZM14.0332 14.0039V15.7617H13.8574C13.4668 15.7617 13.1201 15.8936 12.8174 16.1572C12.5146 16.4209 12.334 16.7383 12.2754 17.1094H11.8066V14.0039H14.0332ZM10.9277 15.7617V17.1094H8.81836L9.78516 15.3516V14.4727C10.0977 14.5117 10.3662 14.6533 10.5908 14.8975C10.8154 15.1416 10.9277 15.4297 10.9277 15.7617ZM8.05664 7.38281C8.4668 7.38281 8.83301 7.48535 9.15527 7.69043C9.47754 7.89551 9.73633 8.16406 9.93164 8.49609C9.73633 8.82812 9.47266 9.0918 9.14062 9.28711C8.80859 9.48242 8.44727 9.58008 8.05664 9.58008C7.66602 9.58008 7.30469 9.48242 6.97266 9.28711C6.64062 9.0918 6.38672 8.82812 6.21094 8.49609C6.38672 8.16406 6.64062 7.89551 6.97266 7.69043C7.30469 7.48535 7.66602 7.38281 8.05664 7.38281ZM5.94727 11.4258V9.58008C6.2207 9.85352 6.53809 10.0684 6.89941 10.2246C7.26074 10.3809 7.64648 10.459 8.05664 10.459C8.4668 10.459 8.85742 10.3809 9.22852 10.2246C9.59961 10.0684 9.92188 9.85352 10.1953 9.58008V11.4258C10.1953 12.0117 9.98535 12.5146 9.56543 12.9346C9.14551 13.3545 8.64258 13.5645 8.05664 13.5645C7.4707 13.5645 6.97266 13.3545 6.5625 12.9346C6.15234 12.5146 5.94727 12.0117 5.94727 11.4258ZM5.24414 15.791C5.24414 15.459 5.34668 15.1709 5.55176 14.9268C5.75684 14.6826 6.02539 14.5312 6.35742 14.4727V15.3516L7.32422 17.1094H5.24414V15.791ZM2.08008 17.8125C2.08008 17.2266 2.29004 16.7236 2.70996 16.3037C3.12988 15.8838 3.63281 15.6738 4.21875 15.6738H4.36523C4.36523 15.6934 4.36523 16.084 4.36523 16.8457C4.36523 17.6074 4.36523 17.9883 4.36523 17.9883H6.03516L6.5332 19.8047L6.18164 22.4707H2.08008V17.8125ZM2.25586 29.1211V25.9863H5.30273V25.1074H0.9375V23.3496H14.0332V25.1074H6.21094V25.9863H14.0332V29.1211H2.25586ZM25.0781 29.1211V25.5469H24.1992V29.1211H17.5488V25.5469H16.6699V29.1211H14.9121V22.4414C14.9707 21.9141 15.2002 21.4648 15.6006 21.0938C16.001 20.7227 16.4746 20.5371 17.0215 20.5371H19.1602V20.7422C19.1602 21.2109 19.3262 21.6162 19.6582 21.958C19.9902 22.2998 20.4004 22.4707 20.8887 22.4707C21.3574 22.4707 21.7578 22.2998 22.0898 21.958C22.4219 21.6162 22.5879 21.2109 22.5879 20.7422V20.5371H24.7266C25.3125 20.5371 25.8105 20.7471 26.2207 21.167C26.6309 21.5869 26.8359 22.0898 26.8359 22.6758V29.1211H25.0781ZM29.0625 25.1074H27.7148V23.3496H29.0625V25.1074ZM15.9082 10.7227L19.5703 7.91016H24.668V3.54492H23.7891V7.03125H19.2773L16.7871 8.93555V7.03125H14.0918V0.878906H23.7891V2.63672H24.668V0H13.2129V7.91016H15.9082V10.7227ZM20.2441 3.51562H21.123V4.39453H20.2441V3.51562ZM18.4863 3.51562H19.3652V4.39453H18.4863V3.51562ZM16.7285 3.51562H17.6074V4.39453H16.7285V3.51562Z" fill="white"/>
</svg>
