<svg width="30" height="30" viewBox="0 0 30 30" fill="none" xmlns="http://www.w3.org/2000/svg">
<path d="M6.82617 16.9336C6.41602 16.8555 5.97168 16.7969 5.49316 16.7578C5.01465 16.7188 4.52148 16.6797 4.01367 16.6406H3.95508C3.74023 16.6406 3.51562 16.7188 3.28125 16.875C3.04688 17.0312 2.91016 17.3828 2.87109 17.9297C2.87109 17.9492 2.87109 17.9736 2.87109 18.0029C2.87109 18.0322 2.87109 18.0566 2.87109 18.0762C2.87109 18.1934 2.87598 18.3057 2.88574 18.4131C2.89551 18.5205 2.91992 18.623 2.95898 18.7207H2.92969C3.00781 18.9941 3.14941 19.2285 3.35449 19.4238C3.55957 19.6191 3.80859 19.7363 4.10156 19.7754L8.23242 20.3613C8.25195 20.3613 8.2666 20.3613 8.27637 20.3613C8.28613 20.3613 8.29102 20.3613 8.29102 20.3613C8.42773 20.3613 8.54004 20.3174 8.62793 20.2295C8.71582 20.1416 8.75977 20.0293 8.75977 19.8926C8.75977 19.8535 8.75488 19.8145 8.74512 19.7754C8.73535 19.7363 8.7207 19.6973 8.70117 19.6582H8.73047C8.04688 18.3691 7.58301 17.5977 7.33887 17.3438C7.09473 17.0898 6.92383 16.9531 6.82617 16.9336ZM4.21875 18.8379C4.14062 18.8184 4.06738 18.7793 3.99902 18.7207C3.93066 18.6621 3.88672 18.584 3.86719 18.4863C3.84766 18.4277 3.83301 18.3643 3.82324 18.2959C3.81348 18.2275 3.80859 18.1543 3.80859 18.0762C3.80859 18.0566 3.80859 18.042 3.80859 18.0322C3.80859 18.0225 3.80859 18.0078 3.80859 17.9883C3.80859 17.9297 3.81348 17.8613 3.82324 17.7832C3.83301 17.7051 3.85742 17.6367 3.89648 17.5781C4.44336 17.6172 4.97559 17.6562 5.49316 17.6953C6.01074 17.7344 6.34766 17.7734 6.50391 17.8125C6.66016 18.0273 6.81641 18.2568 6.97266 18.501C7.12891 18.7451 7.27539 18.9941 7.41211 19.248L7.44141 19.3066L4.21875 18.8379ZM26.0449 16.6406C25.5176 16.6797 25 16.7236 24.4922 16.7725C23.9844 16.8213 23.4863 16.875 22.998 16.9336H23.1738C23.0762 16.9531 22.9053 17.0898 22.6611 17.3438C22.417 17.5977 21.9531 18.3789 21.2695 19.6875C21.2695 19.707 21.2646 19.7363 21.2549 19.7754C21.2451 19.8145 21.2402 19.8535 21.2402 19.8926C21.2402 20.0293 21.2842 20.1416 21.3721 20.2295C21.46 20.3174 21.5723 20.3613 21.709 20.3613C21.709 20.3613 21.7139 20.3613 21.7236 20.3613C21.7334 20.3613 21.748 20.3613 21.7676 20.3613L25.8984 19.7754C26.1719 19.7363 26.416 19.6191 26.6309 19.4238C26.8457 19.2285 26.9824 18.9941 27.041 18.7207C27.0801 18.623 27.1045 18.5205 27.1143 18.4131C27.124 18.3057 27.1289 18.1934 27.1289 18.0762C27.1289 18.0566 27.1289 18.0322 27.1289 18.0029C27.1289 17.9736 27.1289 17.9395 27.1289 17.9004V17.9297C27.0898 17.3828 26.9531 17.0312 26.7188 16.875C26.4844 16.7188 26.2598 16.6406 26.0449 16.6406ZM26.1328 18.4863C26.1133 18.584 26.0693 18.6621 26.001 18.7207C25.9326 18.7793 25.8594 18.8184 25.7812 18.8379L22.5586 19.3066C22.7148 19.0137 22.8711 18.7451 23.0273 18.501C23.1836 18.2568 23.3496 18.0176 23.5254 17.7832L23.4961 17.8125C23.6523 17.7734 23.9893 17.7344 24.5068 17.6953C25.0244 17.6562 25.5566 17.6172 26.1035 17.5781C26.123 17.6367 26.1426 17.7002 26.1621 17.7686C26.1816 17.8369 26.1914 17.9102 26.1914 17.9883C26.1914 18.0078 26.1914 18.0225 26.1914 18.0322C26.1914 18.042 26.1914 18.0566 26.1914 18.0762C26.1914 18.1543 26.1865 18.2275 26.1768 18.2959C26.167 18.3643 26.1523 18.4375 26.1328 18.5156V18.4863ZM21.4746 17.373C21.4355 17.2949 21.3818 17.2412 21.3135 17.2119C21.2451 17.1826 21.1719 17.168 21.0938 17.168C21.0938 17.168 21.0889 17.168 21.0791 17.168C21.0693 17.168 21.0645 17.168 21.0645 17.168C21.0449 17.168 20.8008 17.1875 20.332 17.2266C19.8633 17.2656 19.3066 17.3096 18.6621 17.3584C18.0176 17.4072 17.3535 17.4512 16.6699 17.4902C15.9863 17.5293 15.4297 17.5488 15 17.5488C14.5703 17.5488 14.0137 17.5293 13.3301 17.4902C12.6465 17.4512 11.9824 17.4072 11.3379 17.3584C10.6934 17.3096 10.1367 17.2656 9.66797 17.2266C9.19922 17.1875 8.95508 17.168 8.93555 17.168C8.93555 17.168 8.93066 17.168 8.9209 17.168C8.91113 17.168 8.90625 17.168 8.90625 17.168C8.76953 17.168 8.65723 17.2119 8.56934 17.2998C8.48145 17.3877 8.4375 17.5 8.4375 17.6367C8.4375 17.6758 8.44238 17.71 8.45215 17.7393C8.46191 17.7686 8.4668 17.8027 8.4668 17.8418L9.69727 20.4492C9.73633 20.5273 9.79004 20.5908 9.8584 20.6396C9.92676 20.6885 10.0098 20.7129 10.1074 20.7129L15 21.0059L19.8926 20.7129C19.9902 20.7129 20.0732 20.6885 20.1416 20.6396C20.21 20.5908 20.2637 20.5273 20.3027 20.4492L21.5332 17.8418C21.5527 17.8027 21.5625 17.7686 21.5625 17.7393C21.5625 17.71 21.5625 17.6758 21.5625 17.6367C21.5625 17.5781 21.5576 17.5293 21.5479 17.4902C21.5381 17.4512 21.5137 17.4121 21.4746 17.373ZM19.5703 19.8047L15 20.0684L10.4297 19.8047L9.66797 18.1641C10.3516 18.2227 11.25 18.291 12.3633 18.3691C13.4766 18.4473 14.3555 18.4863 15 18.4863C15.6641 18.4863 16.5527 18.4473 17.666 18.3691C18.7793 18.291 19.668 18.2227 20.332 18.1641L19.5703 19.8047ZM17.6953 3.13477L18.3984 3.36914C18.6133 3.4668 18.8086 3.59863 18.9844 3.76465C19.1602 3.93066 19.2871 4.13086 19.3652 4.36523L19.6289 5.06836C19.668 5.14648 19.7266 5.21484 19.8047 5.27344C19.8828 5.33203 19.9707 5.36133 20.0684 5.36133C20.166 5.36133 20.2539 5.33203 20.332 5.27344C20.4102 5.21484 20.4688 5.14648 20.5078 5.06836L20.7715 4.36523C20.8496 4.13086 20.9766 3.93066 21.1523 3.76465C21.3281 3.59863 21.5234 3.47656 21.7383 3.39844L21.7676 3.36914L22.4414 3.13477C22.5391 3.0957 22.6172 3.03711 22.6758 2.95898C22.7344 2.88086 22.7637 2.79297 22.7637 2.69531C22.7637 2.59766 22.7344 2.50977 22.6758 2.43164C22.6172 2.35352 22.5391 2.29492 22.4414 2.25586L21.7676 1.99219C21.5332 1.89453 21.3281 1.7627 21.1523 1.59668C20.9766 1.43066 20.8496 1.24023 20.7715 1.02539V0.996094L20.5078 0.292969C20.4688 0.214844 20.4102 0.146484 20.332 0.0878906C20.2539 0.0292969 20.166 0 20.0684 0C19.9707 0 19.8828 0.0292969 19.8047 0.0878906C19.7266 0.146484 19.668 0.214844 19.6289 0.292969L19.3652 0.996094C19.2871 1.23047 19.1602 1.43066 18.9844 1.59668C18.8086 1.7627 18.6133 1.89453 18.3984 1.99219L17.6953 2.25586C17.5977 2.27539 17.5244 2.32422 17.4756 2.40234C17.4268 2.48047 17.4023 2.57812 17.4023 2.69531C17.4023 2.79297 17.4268 2.88086 17.4756 2.95898C17.5244 3.03711 17.5977 3.08594 17.6953 3.10547V3.13477ZM20.0684 1.69922C20.1855 1.91406 20.3271 2.09961 20.4932 2.25586C20.6592 2.41211 20.8398 2.54883 21.0352 2.66602V2.69531C20.8398 2.8125 20.6592 2.94922 20.4932 3.10547C20.3271 3.26172 20.1855 3.4375 20.0684 3.63281V3.66211C19.9512 3.44727 19.8096 3.26172 19.6436 3.10547C19.4775 2.94922 19.2969 2.8125 19.1016 2.69531C19.2969 2.57812 19.4775 2.43652 19.6436 2.27051C19.8096 2.10449 19.9512 1.92383 20.0684 1.72852V1.69922ZM22.9688 6.03516L23.4961 6.24023C23.6523 6.29883 23.7891 6.38672 23.9062 6.50391C24.0234 6.62109 24.1113 6.75781 24.1699 6.91406L24.375 7.44141C24.3945 7.51953 24.4482 7.58789 24.5361 7.64648C24.624 7.70508 24.7168 7.73438 24.8145 7.73438C24.9121 7.73438 25 7.70508 25.0781 7.64648C25.1562 7.58789 25.2148 7.51953 25.2539 7.44141L25.4297 6.91406C25.4883 6.75781 25.5811 6.62109 25.708 6.50391C25.835 6.38672 25.9668 6.29883 26.1035 6.24023H26.1328L26.6602 6.03516C26.7383 5.99609 26.8066 5.9375 26.8652 5.85938C26.9238 5.78125 26.9531 5.69336 26.9531 5.5957C26.9531 5.49805 26.9238 5.41016 26.8652 5.33203C26.8066 5.25391 26.7383 5.19531 26.6602 5.15625L26.1328 4.95117C25.9766 4.89258 25.8398 4.80469 25.7227 4.6875C25.6055 4.57031 25.5176 4.43359 25.459 4.27734H25.4297L25.2539 3.75C25.2148 3.65234 25.1562 3.5791 25.0781 3.53027C25 3.48145 24.9121 3.45703 24.8145 3.45703C24.7168 3.45703 24.6289 3.48145 24.5508 3.53027C24.4727 3.5791 24.4141 3.65234 24.375 3.75L24.1699 4.27734C24.1113 4.43359 24.0234 4.57031 23.9062 4.6875C23.7891 4.80469 23.6523 4.89258 23.4961 4.95117L22.9688 5.15625C22.8711 5.19531 22.7979 5.25391 22.749 5.33203C22.7002 5.41016 22.6758 5.49805 22.6758 5.5957C22.6758 5.69336 22.7002 5.78125 22.749 5.85938C22.7979 5.9375 22.8711 5.99609 22.9688 6.03516ZM24.8145 5.06836C24.873 5.16602 24.9463 5.25879 25.0342 5.34668C25.1221 5.43457 25.2148 5.51758 25.3125 5.5957H25.3418C25.2246 5.67383 25.1221 5.75195 25.0342 5.83008C24.9463 5.9082 24.873 6.00586 24.8145 6.12305C24.7363 6.00586 24.6533 5.9082 24.5654 5.83008C24.4775 5.75195 24.3848 5.67383 24.2871 5.5957C24.3848 5.51758 24.4775 5.43457 24.5654 5.34668C24.6533 5.25879 24.7363 5.16602 24.8145 5.06836ZM25.8984 3.13477L26.4258 3.31055C26.582 3.36914 26.7188 3.45703 26.8359 3.57422C26.9531 3.69141 27.041 3.82812 27.0996 3.98438V4.01367L27.3047 4.51172C27.3242 4.60938 27.3779 4.6875 27.4658 4.74609C27.5537 4.80469 27.6465 4.83398 27.7441 4.83398C27.8418 4.83398 27.9297 4.80469 28.0078 4.74609C28.0859 4.6875 28.1445 4.61914 28.1836 4.54102V4.51172L28.3594 4.01367C28.418 3.83789 28.5059 3.69141 28.623 3.57422C28.7402 3.45703 28.877 3.36914 29.0332 3.31055H29.0625L29.5898 3.13477C29.668 3.0957 29.7363 3.03711 29.7949 2.95898C29.8535 2.88086 29.8828 2.79297 29.8828 2.69531C29.8828 2.57812 29.8535 2.48047 29.7949 2.40234C29.7363 2.32422 29.668 2.27539 29.5898 2.25586L29.0625 2.05078C28.9062 1.99219 28.7646 1.9043 28.6377 1.78711C28.5107 1.66992 28.418 1.5332 28.3594 1.37695L28.1836 0.849609C28.1445 0.751953 28.0859 0.673828 28.0078 0.615234C27.9297 0.556641 27.8418 0.527344 27.7441 0.527344C27.6465 0.527344 27.5537 0.556641 27.4658 0.615234C27.3779 0.673828 27.3242 0.751953 27.3047 0.849609L27.0996 1.37695C27.041 1.5332 26.9531 1.66992 26.8359 1.78711C26.7188 1.9043 26.582 1.99219 26.4258 2.05078L25.8984 2.25586C25.8008 2.27539 25.7275 2.32422 25.6787 2.40234C25.6299 2.48047 25.6055 2.57812 25.6055 2.69531C25.6055 2.79297 25.6299 2.88086 25.6787 2.95898C25.7275 3.03711 25.8008 3.08594 25.8984 3.10547V3.13477ZM27.7441 2.16797C27.8027 2.26562 27.876 2.3584 27.9639 2.44629C28.0518 2.53418 28.1445 2.60742 28.2422 2.66602L28.2715 2.69531C28.1543 2.75391 28.0518 2.82715 27.9639 2.91504C27.876 3.00293 27.8027 3.0957 27.7441 3.19336V3.22266C27.666 3.10547 27.583 3.00293 27.4951 2.91504C27.4072 2.82715 27.3145 2.75391 27.2168 2.69531C27.3145 2.61719 27.4072 2.53418 27.4951 2.44629C27.583 2.3584 27.666 2.26562 27.7441 2.16797ZM28.623 26.4844C28.5059 26.4844 28.3984 26.5283 28.3008 26.6162C28.2031 26.7041 28.1543 26.8164 28.1543 26.9531V28.8867C28.1543 28.9453 28.1396 28.9893 28.1104 29.0186C28.0811 29.0479 28.0469 29.0625 28.0078 29.0625H25.5762C25.5176 29.0625 25.4736 29.0479 25.4443 29.0186C25.415 28.9893 25.4004 28.9453 25.4004 28.8867V28.0957C25.4004 27.959 25.3564 27.8467 25.2686 27.7588C25.1807 27.6709 25.0684 27.627 24.9316 27.627C24.7949 27.627 24.6826 27.6709 24.5947 27.7588C24.5068 27.8467 24.4629 27.959 24.4629 28.0957V28.8867C24.4629 29.1992 24.5703 29.4629 24.7852 29.6777C25 29.8926 25.2637 30 25.5762 30H28.0078C28.3008 30 28.5547 29.8926 28.7695 29.6777C28.9844 29.4629 29.0918 29.1992 29.0918 28.8867V26.9531C29.0918 26.8164 29.0479 26.7041 28.96 26.6162C28.8721 26.5283 28.7598 26.4844 28.623 26.4844ZM5.03906 27.627C4.90234 27.627 4.79004 27.6709 4.70215 27.7588C4.61426 27.8467 4.57031 27.959 4.57031 28.0957V28.8867C4.57031 28.9453 4.55566 28.9893 4.52637 29.0186C4.49707 29.0479 4.45312 29.0625 4.39453 29.0625H1.96289C1.92383 29.0625 1.88965 29.0479 1.86035 29.0186C1.83105 28.9893 1.81641 28.9453 1.81641 28.8867V26.9531C1.81641 26.8164 1.76758 26.7041 1.66992 26.6162C1.57227 26.5283 1.46484 26.4844 1.34766 26.4844C1.21094 26.4844 1.09863 26.5283 1.01074 26.6162C0.922852 26.7041 0.878906 26.8164 0.878906 26.9531V28.8867C0.878906 29.1992 0.986328 29.4629 1.20117 29.6777C1.41602 29.8926 1.66992 30 1.96289 30H4.39453C4.70703 30 4.9707 29.8926 5.18555 29.6777C5.40039 29.4629 5.50781 29.1992 5.50781 28.8867V28.0957C5.50781 27.959 5.46387 27.8467 5.37598 27.7588C5.28809 27.6709 5.17578 27.627 5.03906 27.627ZM29.0039 11.7773L27.4512 11.5137C27.4316 11.5137 27.4072 11.5088 27.3779 11.499C27.3486 11.4893 27.3145 11.4844 27.2754 11.4844C27.0605 11.4844 26.8701 11.543 26.7041 11.6602C26.5381 11.7773 26.416 11.9238 26.3379 12.0996V12.1289L26.25 12.3047L25.1367 9.69727C24.8828 9.0918 24.502 8.58398 23.9941 8.17383C23.4863 7.76367 22.9004 7.50977 22.2363 7.41211H22.207C21.1719 7.23633 20.0537 7.10449 18.8525 7.0166C17.6514 6.92871 16.4355 6.88477 15.2051 6.88477C15.166 6.88477 15.127 6.88477 15.0879 6.88477C15.0488 6.88477 15.0195 6.88477 15 6.88477C14.9609 6.88477 14.9268 6.88477 14.8975 6.88477C14.8682 6.88477 14.834 6.88477 14.7949 6.88477C13.5645 6.88477 12.3389 6.92871 11.1182 7.0166C9.89746 7.10449 8.70117 7.24609 7.5293 7.44141L7.79297 7.41211C7.12891 7.50977 6.53809 7.76367 6.02051 8.17383C5.50293 8.58398 5.11719 9.08203 4.86328 9.66797V9.69727L3.75 12.3047L3.66211 12.1289C3.58398 11.9336 3.46191 11.7773 3.2959 11.6602C3.12988 11.543 2.93945 11.4844 2.72461 11.4844C2.68555 11.4844 2.65137 11.4893 2.62207 11.499C2.59277 11.5088 2.56836 11.5137 2.54883 11.5137L0.996094 11.7773C0.722656 11.8164 0.50293 11.9385 0.336914 12.1436C0.170898 12.3486 0.0878906 12.5879 0.0878906 12.8613V13.1543C0.0878906 13.4082 0.166016 13.6377 0.322266 13.8428C0.478516 14.0479 0.673828 14.1699 0.908203 14.209L0.9375 14.2383L2.40234 14.5605L1.75781 15.5566C1.48438 15.9668 1.26953 16.4209 1.11328 16.9189C0.957031 17.417 0.878906 17.9395 0.878906 18.4863V23.8184C0.878906 24.8145 1.20117 25.6152 1.8457 26.2207C2.49023 26.8262 3.35938 27.1289 4.45312 27.1289H25.5469C26.6406 27.1289 27.5098 26.8262 28.1543 26.2207C28.7988 25.6152 29.1211 24.8145 29.1211 23.8184V18.4863C29.1211 17.9395 29.043 17.417 28.8867 16.9189C28.7305 16.4209 28.5156 15.957 28.2422 15.5273V15.5566L27.5977 14.5605L29.0625 14.2383C29.3164 14.1797 29.5215 14.0527 29.6777 13.8574C29.834 13.6621 29.9121 13.4277 29.9121 13.1543V12.8613C29.9121 12.5879 29.8291 12.3535 29.6631 12.1582C29.4971 11.9629 29.2871 11.8359 29.0332 11.7773H29.0039ZM1.14258 13.3008C1.10352 13.3008 1.07422 13.2861 1.05469 13.2568C1.03516 13.2275 1.02539 13.1934 1.02539 13.1543V12.8613C1.02539 12.8223 1.03516 12.7881 1.05469 12.7588C1.07422 12.7295 1.10352 12.7148 1.14258 12.7148L2.69531 12.4512C2.71484 12.4512 2.72461 12.4463 2.72461 12.4365C2.72461 12.4268 2.72461 12.4219 2.72461 12.4219C2.74414 12.4219 2.76367 12.4316 2.7832 12.4512C2.80273 12.4707 2.8125 12.4902 2.8125 12.5098L3.19336 13.3594L2.95898 13.7109L1.14258 13.3008ZM28.1836 22.3535H3.01758C2.88086 22.3535 2.76855 22.3975 2.68066 22.4854C2.59277 22.5732 2.54883 22.6855 2.54883 22.8223C2.54883 22.959 2.59277 23.0713 2.68066 23.1592C2.76855 23.2471 2.88086 23.291 3.01758 23.291H28.1836V23.8184C28.1836 24.5605 27.9492 25.1416 27.4805 25.5615C27.0117 25.9814 26.3672 26.1914 25.5469 26.1914H4.45312C3.63281 26.1914 2.98828 25.9814 2.51953 25.5615C2.05078 25.1416 1.81641 24.5605 1.81641 23.8184V18.4863C1.81641 18.0371 1.87988 17.6074 2.00684 17.1973C2.13379 16.7871 2.31445 16.4062 2.54883 16.0547V16.084L4.01367 13.8281H24.4629C24.5996 13.8281 24.7119 13.7793 24.7998 13.6816C24.8877 13.584 24.9316 13.4766 24.9316 13.3594C24.9316 13.2227 24.8877 13.1104 24.7998 13.0225C24.7119 12.9346 24.5996 12.8906 24.4629 12.8906H4.54102L5.71289 10.0488C5.9082 9.59961 6.20117 9.22363 6.5918 8.9209C6.98242 8.61816 7.42188 8.41797 7.91016 8.32031H7.93945C8.95508 8.16406 10.0488 8.04199 11.2207 7.9541C12.3926 7.86621 13.584 7.82227 14.7949 7.82227C14.834 7.82227 14.873 7.82227 14.9121 7.82227C14.9512 7.82227 14.9805 7.82227 15 7.82227C15.0391 7.82227 15.0732 7.82227 15.1025 7.82227C15.1318 7.82227 15.166 7.82227 15.2051 7.82227C16.416 7.82227 17.6172 7.86621 18.8086 7.9541C20 8.04199 21.1719 8.17383 22.3242 8.34961L22.0605 8.32031C22.5684 8.39844 23.0176 8.59375 23.4082 8.90625C23.7988 9.21875 24.082 9.59961 24.2578 10.0488H24.2871L25.6348 13.3008C25.6543 13.3008 25.6641 13.3105 25.6641 13.3301C25.6641 13.3496 25.6738 13.3594 25.6934 13.3594L27.4512 16.084C27.6855 16.416 27.8662 16.7871 27.9932 17.1973C28.1201 17.6074 28.1836 18.0371 28.1836 18.4863V22.3535ZM28.9746 13.1543C28.9746 13.1934 28.9648 13.2275 28.9453 13.2568C28.9258 13.2861 28.8965 13.3008 28.8574 13.3008L27.041 13.7109L26.8066 13.3594L27.1875 12.4805C27.207 12.4609 27.2217 12.4463 27.2314 12.4365C27.2412 12.4268 27.2559 12.4219 27.2754 12.4219C27.2754 12.4219 27.2803 12.4219 27.29 12.4219C27.2998 12.4219 27.3047 12.4219 27.3047 12.4219L28.8574 12.7148C28.8965 12.7148 28.9258 12.7295 28.9453 12.7588C28.9648 12.7881 28.9746 12.8223 28.9746 12.8613V13.1543Z" fill="white"/>
</svg>
