<svg width="30" height="30" viewBox="0 0 30 30" fill="none" xmlns="http://www.w3.org/2000/svg">
<path d="M7.44141 14.2383L5.06836 13.7402C4.73633 13.6621 4.44336 13.7305 4.18945 13.9453C3.93555 14.1602 3.80859 14.4336 3.80859 14.7656V15.7617C3.80859 16.1523 3.94043 16.4111 4.2041 16.5381C4.46777 16.665 4.78516 16.7285 5.15625 16.7285H7.79297C8.04688 16.7285 8.28125 16.6895 8.49609 16.6113C8.71094 16.5332 8.81836 16.3574 8.81836 16.084V15.9375C8.81836 15.5078 8.69141 15.1367 8.4375 14.8242C8.18359 14.5117 7.85156 14.3164 7.44141 14.2383ZM4.6875 15.7617C4.6875 15.7227 4.6875 15.6641 4.6875 15.5859C4.6875 15.5078 4.6875 15.2148 4.6875 14.707C4.6875 14.668 4.70703 14.6289 4.74609 14.5898C4.78516 14.5508 4.82422 14.5508 4.86328 14.5898L7.26562 15.0879C7.42188 15.1465 7.55859 15.2393 7.67578 15.3662C7.79297 15.4932 7.86133 15.6348 7.88086 15.791C7.06055 15.791 6.34277 15.791 5.72754 15.791C5.1123 15.791 4.76562 15.7812 4.6875 15.7617ZM28.7402 9.22852L25.3711 7.64648C24.8047 7.39258 24.2236 7.22168 23.6279 7.13379C23.0322 7.0459 22.4414 7.06055 21.8555 7.17773L21.3281 6.15234C21.1328 5.68359 20.8301 5.29785 20.4199 4.99512C20.0098 4.69238 19.5508 4.54102 19.043 4.54102H8.05664C7.54883 4.54102 7.08496 4.68262 6.66504 4.96582C6.24512 5.24902 5.94727 5.625 5.77148 6.09375L3.92578 9.90234C3.73047 9.58984 3.4668 9.3457 3.13477 9.16992C2.80273 8.99414 2.44141 8.90625 2.05078 8.90625H1.25977C0.908203 8.90625 0.610352 9.02832 0.366211 9.27246C0.12207 9.5166 0 9.81445 0 10.166V10.6934C0 11.0449 0.12207 11.3428 0.366211 11.5869C0.610352 11.8311 0.908203 11.9531 1.25977 11.9531H2.49023C2.23633 12.2852 2.0459 12.6514 1.91895 13.0518C1.79199 13.4521 1.72852 13.8672 1.72852 14.2969V17.1094C1.72852 17.6562 1.82129 18.1836 2.00684 18.6914C2.19238 19.1992 2.48047 19.668 2.87109 20.0977V22.207C2.87109 22.6758 3.03223 23.0762 3.35449 23.4082C3.67676 23.7402 4.07227 23.9062 4.54102 23.9062H6.26953C6.73828 23.9062 7.13867 23.7402 7.4707 23.4082C7.80273 23.0762 7.96875 22.6758 7.96875 22.207V21.3867H17.3438C18.3789 22.793 19.5215 23.8135 20.7715 24.4482C22.0215 25.083 22.6562 25.4004 22.6758 25.4004C22.7344 25.4199 22.7881 25.4297 22.8369 25.4297C22.8857 25.4297 22.9492 25.4199 23.0273 25.4004C23.0273 25.4004 23.3984 25.2246 24.1406 24.873C24.8633 24.541 25.6592 24.0186 26.5283 23.3057C27.3975 22.5928 28.1934 21.6797 28.916 20.5664C29.6387 19.4336 30 18.0762 30 16.4941V11.25C30 10.8203 29.8828 10.4248 29.6484 10.0635C29.4141 9.70215 29.1113 9.42383 28.7402 9.22852ZM6.62109 6.47461C6.73828 6.16211 6.92383 5.91797 7.17773 5.74219C7.43164 5.56641 7.72461 5.47852 8.05664 5.47852H19.043C19.3555 5.47852 19.6484 5.57129 19.9219 5.75684C20.1953 5.94238 20.4004 6.19141 20.5371 6.50391L20.9473 7.41211C20.8496 7.43164 20.7568 7.46094 20.6689 7.5C20.5811 7.53906 20.4883 7.58789 20.3906 7.64648L17.0215 9.22852C16.6504 9.42383 16.3477 9.69727 16.1133 10.0488C15.8789 10.4004 15.7617 10.7812 15.7617 11.1914H4.27734C4.35547 11.0547 4.47266 10.8496 4.62891 10.5762C4.78516 10.3027 5.44922 8.93555 6.62109 6.47461ZM0.9375 10.6934V10.166C0.9375 10.0684 0.966797 9.99023 1.02539 9.93164C1.08398 9.87305 1.16211 9.84375 1.25977 9.84375H2.05078C2.51953 9.84375 2.85156 9.99023 3.04688 10.2832C3.24219 10.5762 3.36914 10.7617 3.42773 10.8398C3.4082 10.8789 3.38379 10.9131 3.35449 10.9424C3.3252 10.9717 3.28125 11.0156 3.22266 11.0742H1.25977C1.16211 11.0352 1.08398 10.9863 1.02539 10.9277C0.966797 10.8691 0.9375 10.791 0.9375 10.6934ZM7.03125 22.1777C7.03125 22.3926 6.95801 22.5684 6.81152 22.7051C6.66504 22.8418 6.48438 22.9102 6.26953 22.9102H4.51172C4.29688 22.9492 4.11621 22.8906 3.96973 22.7344C3.82324 22.5781 3.75 22.3926 3.75 22.1777V20.8008C4.02344 20.9766 4.32129 21.1084 4.64355 21.1963C4.96582 21.2842 5.29297 21.3281 5.625 21.3281H7.03125V22.1777ZM5.56641 20.4492C4.72656 20.4492 4.01855 20.1025 3.44238 19.4092C2.86621 18.7158 2.57812 17.9297 2.57812 17.0508V14.2383C2.57812 13.8477 2.65625 13.4668 2.8125 13.0957C2.96875 12.7246 3.18359 12.3926 3.45703 12.0996H15.7617V16.2305H10.6055C10.4883 16.2305 10.3809 16.2695 10.2832 16.3477C10.1855 16.4258 10.1367 16.543 10.1367 16.6992C10.1367 16.8359 10.1758 16.9482 10.2539 17.0361C10.332 17.124 10.4492 17.168 10.6055 17.168H15.791C15.8105 17.3242 15.8301 17.4756 15.8496 17.6221C15.8691 17.7686 15.8984 17.9102 15.9375 18.0469H10.6055C10.4883 18.0469 10.3809 18.0908 10.2832 18.1787C10.1855 18.2666 10.1367 18.3789 10.1367 18.5156C10.1367 18.6523 10.1758 18.7646 10.2539 18.8525C10.332 18.9404 10.4492 18.9844 10.6055 18.9844H16.1133C16.2109 19.2383 16.3135 19.4922 16.4209 19.7461C16.5283 20 16.6504 20.2344 16.7871 20.4492H5.56641ZM29.0625 16.4941C29.0625 17.8027 28.7891 18.9355 28.2422 19.8926C27.6758 20.8496 27.0361 21.6504 26.3232 22.2949C25.6104 22.9395 24.9121 23.4375 24.2285 23.7891C23.5645 24.1406 23.1152 24.3652 22.8809 24.4629C22.041 24.1309 21.2402 23.7012 20.4785 23.1738C19.7363 22.6465 19.082 22.041 18.5156 21.3574C17.9492 20.6738 17.5 19.9316 17.168 19.1309C16.8555 18.3105 16.6992 17.4316 16.6992 16.4941C16.6992 15.6348 16.6992 14.8682 16.6992 14.1943C16.6992 13.5205 16.6992 12.5391 16.6992 11.25C16.6992 10.9961 16.7627 10.7666 16.8896 10.5615C17.0166 10.3564 17.1973 10.1953 17.4316 10.0781L20.8008 8.49609C21.4844 8.16406 22.1924 7.99805 22.9248 7.99805C23.6572 7.99805 24.3555 8.16406 25.0195 8.49609L28.418 10.0781C28.6133 10.1953 28.7842 10.3564 28.9307 10.5615C29.0771 10.7666 29.1504 10.9961 29.1504 11.25V16.4941H29.0625ZM27.4805 11.1621L24.375 9.69727C23.9062 9.46289 23.3984 9.3457 22.8516 9.3457C22.3047 9.3457 21.7969 9.46289 21.3281 9.69727L18.2812 11.1621C18.2031 11.2012 18.1348 11.2549 18.0762 11.3232C18.0176 11.3916 17.9883 11.4746 17.9883 11.5723V16.4941C17.9883 17.4316 18.1641 18.252 18.5156 18.9551C18.8672 19.6777 19.292 20.3027 19.79 20.8301C20.2881 21.3574 20.8008 21.7969 21.3281 22.1484C21.8555 22.4805 22.2949 22.7344 22.6465 22.9102C22.7051 22.9492 22.7734 22.9688 22.8516 22.9688C22.9297 22.9688 22.998 22.9492 23.0566 22.9102C23.4082 22.7344 23.8477 22.4805 24.375 22.1484C24.9023 21.7969 25.415 21.3574 25.9131 20.8301C26.4111 20.3027 26.8359 19.6777 27.1875 18.9551C27.5391 18.252 27.7148 17.4316 27.7148 16.4941V11.5723C27.7148 11.4746 27.6904 11.3916 27.6416 11.3232C27.5928 11.2549 27.5391 11.2012 27.4805 11.1621ZM26.8066 16.4941C26.8066 17.998 26.3135 19.1992 25.3271 20.0977C24.3408 20.9961 23.5254 21.6211 22.8809 21.9727C22.0996 21.5625 21.2451 20.918 20.3174 20.0391C19.3896 19.1602 18.9258 17.9785 18.9258 16.4941V11.8652L21.7383 10.4883C22.0898 10.332 22.4658 10.2539 22.8662 10.2539C23.2666 10.2539 23.6426 10.332 23.9941 10.4883L26.8066 11.8652V16.4941ZM21.0352 16.3477C20.957 16.2891 20.8545 16.2695 20.7275 16.2891C20.6006 16.3086 20.4883 16.3672 20.3906 16.4648C20.293 16.543 20.2588 16.6455 20.2881 16.7725C20.3174 16.8994 20.3809 17.0117 20.4785 17.1094L22.2656 18.457C22.3633 18.5352 22.4756 18.5645 22.6025 18.5449C22.7295 18.5254 22.832 18.4668 22.9102 18.3691L25.5469 14.9414C25.625 14.8633 25.6543 14.7607 25.6348 14.6338C25.6152 14.5068 25.5566 14.3945 25.459 14.2969C25.3613 14.2188 25.249 14.1895 25.1221 14.209C24.9951 14.2285 24.8828 14.2871 24.7852 14.3848L22.4414 17.4316L21.0352 16.3477Z" fill="white"/>
</svg>
