<svg width="30" height="30" viewBox="0 0 30 30" fill="none" xmlns="http://www.w3.org/2000/svg">
<path d="M16.9082 12.5391C16.9082 12.0117 16.7227 11.5625 16.3516 11.1914C15.9805 10.8203 15.5313 10.6348 15.0039 10.6348C14.4766 10.6348 14.0273 10.8203 13.6562 11.1914C13.2852 11.5625 13.0996 12.0117 13.0996 12.5391C13.0996 13.0664 13.2852 13.5156 13.6562 13.8867C14.0273 14.2578 14.4766 14.4434 15.0039 14.4434C15.5313 14.4434 15.9805 14.2578 16.3516 13.8867C16.7227 13.5156 16.9082 13.0664 16.9082 12.5391ZM14.2715 12.5391C14.2715 12.3438 14.3447 12.1729 14.4912 12.0264C14.6377 11.8799 14.8086 11.8066 15.0039 11.8066C15.1992 11.8066 15.3701 11.8799 15.5166 12.0264C15.6631 12.1729 15.7363 12.3438 15.7363 12.5391C15.7363 12.7344 15.6631 12.9053 15.5166 13.0518C15.3701 13.1982 15.1992 13.2715 15.0039 13.2715C14.8086 13.2715 14.6377 13.1982 14.4912 13.0518C14.3447 12.9053 14.2715 12.7344 14.2715 12.5391ZM29.9453 21.123L29.0078 18.8086L29.5059 18.0176C29.7402 17.6855 29.8867 17.3242 29.9453 16.9336C30.0039 16.543 29.9746 16.1621 29.8574 15.791L29.3887 14.0332C29.2715 13.6426 29.0957 13.2861 28.8613 12.9639C28.627 12.6416 28.3438 12.373 28.0117 12.1582C27.9531 12.1191 27.8945 12.0898 27.8359 12.0703C27.7773 12.0508 27.709 12.041 27.6309 12.041C27.5723 10.5957 27.2793 9.22852 26.752 7.93945C26.2051 6.63086 25.4824 5.4541 24.584 4.40918C23.6855 3.36426 22.6309 2.48047 21.4199 1.75781C20.209 1.03516 18.8906 0.527344 17.4648 0.234375C17.3086 0.214844 17.1621 0.249023 17.0254 0.336914C16.8887 0.424805 16.8105 0.546875 16.791 0.703125C16.752 0.859375 16.7764 1.00586 16.8643 1.14258C16.9521 1.2793 17.0742 1.35742 17.2305 1.37695C18.5781 1.65039 19.8184 2.13867 20.9512 2.8418C22.084 3.52539 23.0605 4.36523 23.8809 5.36133C24.7012 6.35742 25.3359 7.48047 25.7852 8.73047C26.2539 9.98047 26.4883 11.2891 26.4883 12.6562C26.4883 12.7344 26.4883 12.8125 26.4883 12.8906C26.4883 12.9688 26.4883 13.0566 26.4883 13.1543L25.2578 13.7988C25.2773 13.6035 25.292 13.4131 25.3018 13.2275C25.3115 13.042 25.3164 12.8516 25.3164 12.6562C25.3164 12.3438 25.3018 12.0312 25.2725 11.7188C25.2432 11.4062 25.1992 11.0938 25.1406 10.7812C25.1406 10.7812 25.1406 10.7764 25.1406 10.7666C25.1406 10.7568 25.1406 10.752 25.1406 10.752C24.9062 9.56055 24.4863 8.44727 23.8809 7.41211C23.2754 6.39648 22.5234 5.5127 21.625 4.76074C20.7266 4.00879 19.7109 3.41797 18.5781 2.98828C17.4453 2.55859 16.2539 2.34375 15.0039 2.34375C13.7539 2.34375 12.5625 2.55859 11.4297 2.98828C10.2969 3.41797 9.28125 4.00879 8.38281 4.76074C7.48438 5.5127 6.73242 6.39648 6.12695 7.41211C5.52148 8.44727 5.10156 9.56055 4.86719 10.752C4.86719 10.752 4.86719 10.7568 4.86719 10.7666C4.86719 10.7764 4.86719 10.7812 4.86719 10.7812C4.80859 11.0938 4.76465 11.4062 4.73535 11.7188C4.70605 12.0312 4.69141 12.3438 4.69141 12.6562C4.69141 12.8516 4.69629 13.042 4.70605 13.2275C4.71582 13.4131 4.73047 13.6035 4.75 13.7988L3.51953 13.1543C3.51953 13.0566 3.51953 12.9688 3.51953 12.8906C3.51953 12.8125 3.51953 12.7344 3.51953 12.6562C3.51953 11.2891 3.75391 9.98047 4.22266 8.73047C4.67188 7.48047 5.30664 6.35742 6.12695 5.36133C6.94727 4.36523 7.92383 3.51562 9.05664 2.8125C10.1895 2.12891 11.4297 1.65039 12.7773 1.37695C12.9336 1.35742 13.0557 1.2793 13.1436 1.14258C13.2314 1.00586 13.2656 0.859375 13.2461 0.703125C13.207 0.546875 13.124 0.419922 12.9971 0.322266C12.8701 0.224609 12.7188 0.195312 12.543 0.234375C11.1172 0.507812 9.79883 1.01562 8.58789 1.75781C7.37695 2.48047 6.32227 3.36426 5.42383 4.40918C4.52539 5.4541 3.80273 6.63086 3.25586 7.93945C2.72852 9.22852 2.43555 10.5957 2.37695 12.041C2.29883 12.041 2.23047 12.0508 2.17188 12.0703C2.11328 12.0898 2.05469 12.1191 1.99609 12.1582C1.66406 12.373 1.38086 12.6416 1.14648 12.9639C0.912109 13.2861 0.736328 13.6426 0.619141 14.0332L0.150391 15.791C0.0332031 16.1621 0.00390625 16.543 0.0625 16.9336C0.121094 17.3242 0.267578 17.6855 0.501953 18.0176L1 18.8086L0.0625 21.123C-0.015625 21.2598 -0.0205078 21.4062 0.0478516 21.5625C0.116211 21.7188 0.21875 21.8262 0.355469 21.8848C0.394531 21.9043 0.433594 21.9189 0.472656 21.9287C0.511719 21.9385 0.550781 21.9434 0.589844 21.9434C0.707031 21.9434 0.814453 21.9092 0.912109 21.8408C1.00977 21.7725 1.07812 21.6797 1.11719 21.5625L2.02539 19.4238L4.57422 19.9805L2.37695 29.2676C2.33789 29.4238 2.35742 29.5752 2.43555 29.7217C2.51367 29.8682 2.63086 29.9512 2.78711 29.9707C2.82617 29.9902 2.85547 30 2.875 30C2.89453 30 2.91406 30 2.93359 30C3.07031 30 3.19238 29.9609 3.2998 29.8828C3.40723 29.8047 3.4707 29.6973 3.49023 29.5605L5.51172 21.0352C6.11719 21.7188 6.78125 22.3242 7.50391 22.8516C8.22656 23.3789 8.99316 23.8232 9.80371 24.1846C10.6143 24.5459 11.4492 24.8242 12.3086 25.0195C13.1875 25.2148 14.0859 25.3125 15.0039 25.3125C16.0195 25.3125 17.0156 25.1953 17.9922 24.9609C18.9688 24.7266 19.9062 24.375 20.8047 23.9062C21.4883 23.5547 22.1426 23.1348 22.7676 22.6465C23.3926 22.1582 23.9688 21.6211 24.4961 21.0352L26.5176 29.5605C26.5371 29.6973 26.6006 29.8047 26.708 29.8828C26.8154 29.9609 26.9375 30 27.0742 30C27.0938 30 27.1133 30 27.1328 30C27.1523 30 27.1816 29.9902 27.2207 29.9707C27.377 29.9512 27.4941 29.8682 27.5723 29.7217C27.6504 29.5752 27.6699 29.4238 27.6309 29.2676L25.4336 19.9805L27.9824 19.4238L28.8906 21.5625C28.9297 21.6797 28.998 21.7725 29.0957 21.8408C29.1934 21.9092 29.3008 21.9434 29.418 21.9434C29.457 21.9434 29.4961 21.9385 29.5352 21.9287C29.5742 21.9189 29.6133 21.9043 29.6523 21.8848C29.7891 21.8262 29.8916 21.7188 29.96 21.5625C30.0283 21.4062 30.0234 21.2598 29.9453 21.123ZM27.4551 13.9453C27.5137 13.9258 27.5625 13.8965 27.6016 13.8574C27.6406 13.8184 27.6699 13.7793 27.6895 13.7402L27.8359 13.5352C27.9336 13.6523 28.0166 13.7793 28.085 13.916C28.1533 14.0527 28.207 14.1895 28.2461 14.3262L28.7441 16.084C28.8027 16.3184 28.8125 16.543 28.7734 16.7578C28.7344 16.9727 28.6562 17.1777 28.5391 17.373L27.9824 18.2227L24.9062 18.8672L24.3789 18.3105C24.1641 18.1152 24.0029 17.8809 23.8955 17.6074C23.7881 17.334 23.7344 17.0508 23.7344 16.7578V15.3516C23.7344 15.2539 23.7637 15.1709 23.8223 15.1025C23.8809 15.0342 23.9492 14.9902 24.0273 14.9707L24.1738 14.9414C24.3691 15.0586 24.5938 15.1221 24.8477 15.1318C25.1016 15.1416 25.3359 15.0879 25.5508 14.9707L27.4551 13.9453ZM7.35742 14.8828H10.8438C11.3711 14.8828 11.8252 15.0732 12.2061 15.4541C12.5869 15.835 12.7773 16.2891 12.7773 16.8164V21.5332C11.6641 21.2598 10.6387 20.7861 9.70117 20.1123C8.76367 19.4385 7.97266 18.6035 7.32812 17.6074C7.36719 17.4707 7.39648 17.334 7.41602 17.1973C7.43555 17.0605 7.44531 16.9141 7.44531 16.7578V15.3516C7.44531 15.2734 7.43555 15.1953 7.41602 15.1172C7.39648 15.0391 7.37695 14.9609 7.35742 14.8828ZM10.8438 13.7109H5.92188C5.90234 13.5352 5.8877 13.3594 5.87793 13.1836C5.86816 13.0078 5.86328 12.832 5.86328 12.6562C5.86328 12.4414 5.87305 12.2217 5.89258 11.9971C5.91211 11.7725 5.93164 11.5625 5.95117 11.3672L11.8984 9.93164C12.9141 9.67773 13.9492 9.55078 15.0039 9.55078C16.0586 9.55078 17.0938 9.67773 18.1094 9.93164L24.0566 11.3672C24.0762 11.5625 24.0957 11.7725 24.1152 11.9971C24.1348 12.2217 24.1445 12.4414 24.1445 12.6562C24.1445 12.832 24.1396 13.0078 24.1299 13.1836C24.1201 13.3594 24.1055 13.5352 24.0859 13.7109H19.1641C18.3047 13.7109 17.5723 14.0137 16.9668 14.6191C16.3613 15.2246 16.0586 15.957 16.0586 16.8164V21.7383C15.8828 21.7578 15.707 21.7725 15.5313 21.7822C15.3555 21.792 15.1797 21.7969 15.0039 21.7969C14.8281 21.7969 14.6523 21.792 14.4766 21.7822C14.3008 21.7725 14.125 21.7578 13.9492 21.7383V16.8164C13.9492 15.957 13.6465 15.2246 13.041 14.6191C12.4355 14.0137 11.7031 13.7109 10.8438 13.7109ZM17.2305 16.8164C17.2305 16.2891 17.4209 15.835 17.8018 15.4541C18.1826 15.0732 18.6367 14.8828 19.1641 14.8828H22.6504C22.6309 14.9609 22.6113 15.0391 22.5918 15.1172C22.5723 15.1953 22.5625 15.2734 22.5625 15.3516V16.7578C22.5625 16.9141 22.5723 17.0605 22.5918 17.1973C22.6113 17.334 22.6406 17.4707 22.6797 17.6074C22.0352 18.6035 21.2441 19.4385 20.3066 20.1123C19.3691 20.7861 18.3438 21.2598 17.2305 21.5332V16.8164ZM15.0039 3.51562C16.0391 3.51562 17.0254 3.68164 17.9629 4.01367C18.9004 4.3457 19.7549 4.7998 20.5264 5.37598C21.2979 5.95215 21.957 6.65039 22.5039 7.4707C23.0703 8.27148 23.4902 9.14062 23.7637 10.0781L18.373 8.78906C17.2793 8.51562 16.1562 8.37891 15.0039 8.37891C13.8516 8.37891 12.7285 8.51562 11.6348 8.78906L6.24414 10.0781C6.51758 9.14062 6.9375 8.27148 7.50391 7.4707C8.05078 6.65039 8.70996 5.95215 9.48145 5.37598C10.2529 4.7998 11.1074 4.3457 12.0449 4.01367C12.9824 3.68164 13.9688 3.51562 15.0039 3.51562ZM1.26367 16.084L1.76172 14.3262C1.80078 14.1895 1.85449 14.0527 1.92285 13.916C1.99121 13.7793 2.07422 13.6523 2.17188 13.5352L2.31836 13.7402C2.33789 13.7793 2.36719 13.8184 2.40625 13.8574C2.44531 13.8965 2.49414 13.9258 2.55273 13.9453L4.45703 14.9707C4.67188 15.0879 4.90625 15.1416 5.16016 15.1318C5.41406 15.1221 5.63867 15.0586 5.83398 14.9414L5.98047 14.9707C6.05859 14.9902 6.12695 15.0342 6.18555 15.1025C6.24414 15.1709 6.27344 15.2539 6.27344 15.3516V16.7578C6.27344 17.0508 6.21973 17.334 6.1123 17.6074C6.00488 17.8809 5.84375 18.1152 5.62891 18.3105L5.10156 18.8672L2.02539 18.2227L1.46875 17.373C1.35156 17.1777 1.27344 16.9727 1.23438 16.7578C1.19531 16.543 1.20508 16.3184 1.26367 16.084ZM15.0039 24.1406C14.125 24.1406 13.2559 24.043 12.3965 23.8477C11.5371 23.6328 10.7217 23.335 9.9502 22.9541C9.17871 22.5732 8.45117 22.1094 7.76758 21.5625C7.08398 21.0156 6.46875 20.3906 5.92188 19.6875L6.47852 19.1309C6.51758 19.0918 6.56152 19.043 6.61035 18.9844C6.65918 18.9258 6.70312 18.877 6.74219 18.8379C7.17188 19.4043 7.65527 19.9219 8.19238 20.3906C8.72949 20.8594 9.31055 21.2695 9.93555 21.6211C10.6973 22.0703 11.5078 22.4072 12.3672 22.6318C13.2266 22.8564 14.1055 22.9688 15.0039 22.9688C15.9023 22.9688 16.7812 22.8564 17.6406 22.6318C18.5 22.4072 19.3105 22.0703 20.0723 21.6211C20.6973 21.2695 21.2783 20.8594 21.8154 20.3906C22.3525 19.9219 22.8359 19.4043 23.2656 18.8379C23.3047 18.877 23.3486 18.9258 23.3975 18.9844C23.4463 19.043 23.4902 19.0918 23.5293 19.1309L24.0859 19.6875C23.5391 20.3906 22.9238 21.0156 22.2402 21.5625C21.5566 22.1094 20.8291 22.5732 20.0576 22.9541C19.2861 23.335 18.4707 23.6328 17.6113 23.8477C16.752 24.043 15.8828 24.1406 15.0039 24.1406ZM15.0039 1.17188C15.1797 1.17188 15.3213 1.11328 15.4287 0.996094C15.5361 0.878906 15.5898 0.742188 15.5898 0.585938C15.5898 0.429688 15.5361 0.292969 15.4287 0.175781C15.3213 0.0585938 15.1797 0 15.0039 0C14.8477 0 14.7109 0.0585938 14.5938 0.175781C14.4766 0.292969 14.418 0.429688 14.418 0.585938C14.418 0.742188 14.4766 0.878906 14.5938 0.996094C14.7109 1.11328 14.8477 1.17188 15.0039 1.17188Z" fill="white"/>
</svg>
