<svg width="45" height="45" viewBox="0 0 45 45" fill="none" xmlns="http://www.w3.org/2000/svg">
<path d="M11.0303 29.6191C10.5029 29.6191 10.0635 29.8022 9.71191 30.1685C9.36035 30.5347 9.18457 30.9668 9.18457 31.4648C9.18457 31.9922 9.36035 32.439 9.71191 32.8052C10.0635 33.1714 10.5029 33.3545 11.0303 33.3545C11.5576 33.3545 11.9971 33.1714 12.3486 32.8052C12.7002 32.439 12.876 31.9922 12.876 31.4648C12.876 30.9668 12.7002 30.5347 12.3486 30.1685C11.9971 29.8022 11.5576 29.6191 11.0303 29.6191ZM11.0303 32.6514C10.708 32.6514 10.4297 32.5342 10.1953 32.2998C9.96094 32.0654 9.84375 31.7871 9.84375 31.4648C9.84375 31.1426 9.96094 30.8643 10.1953 30.6299C10.4297 30.3955 10.708 30.2783 11.0303 30.2783C11.3525 30.2783 11.6309 30.3955 11.8652 30.6299C12.0996 30.8643 12.2168 31.1426 12.2168 31.4648C12.2168 31.7871 12.0996 32.0654 11.8652 32.2998C11.6309 32.5342 11.3525 32.6514 11.0303 32.6514ZM36.4746 29.6191C35.9766 29.6191 35.5444 29.8022 35.1782 30.1685C34.812 30.5347 34.6289 30.9668 34.6289 31.4648C34.6289 31.9922 34.812 32.439 35.1782 32.8052C35.5444 33.1714 35.9766 33.3545 36.4746 33.3545C37.002 33.3545 37.4487 33.1714 37.8149 32.8052C38.1812 32.439 38.3643 31.9922 38.3643 31.4648C38.3643 30.9668 38.1812 30.5347 37.8149 30.1685C37.4487 29.8022 37.0166 29.6191 36.5186 29.6191C36.5186 29.6191 36.5112 29.6191 36.4966 29.6191C36.4819 29.6191 36.4746 29.6191 36.4746 29.6191ZM36.4746 32.6514C36.1523 32.6514 35.8813 32.5342 35.6616 32.2998C35.4419 32.0654 35.332 31.7871 35.332 31.4648C35.332 31.1426 35.4419 30.8643 35.6616 30.6299C35.8813 30.3955 36.1523 30.2783 36.4746 30.2783C36.7969 30.2783 37.0752 30.3955 37.3096 30.6299C37.5439 30.8643 37.6611 31.1426 37.6611 31.4648C37.6611 31.7871 37.5439 32.0654 37.3096 32.2998C37.0752 32.5342 36.7969 32.6514 36.4746 32.6514ZM43.7256 21.5771H43.5938V20.9619C43.5938 20.4639 43.4253 20.0464 43.0884 19.7095C42.7515 19.3726 42.334 19.2041 41.8359 19.2041H30.7617L29.3115 12.9199C29.2529 12.5684 29.0771 12.2754 28.7842 12.041C28.4912 11.8066 28.1543 11.6895 27.7734 11.6895H26.7627V9.84375C26.7627 9.58008 26.6675 9.35303 26.4771 9.1626C26.2866 8.97217 26.0596 8.87695 25.7959 8.87695H5.625C5.36133 8.87695 5.13428 8.97217 4.94385 9.1626C4.75342 9.35303 4.6582 9.58008 4.6582 9.84375V11.6455H4.35059C3.91113 11.6455 3.5376 11.8066 3.22998 12.1289C2.92236 12.4512 2.76855 12.832 2.76855 13.2715V17.0508H0.351562C0.263672 17.0508 0.183105 17.0874 0.109863 17.1606C0.0366211 17.2339 0 17.3145 0 17.4023V25.708C0 25.7959 0.0366211 25.8765 0.109863 25.9497C0.183105 26.0229 0.263672 26.0596 0.351562 26.0596H2.76855V29.0039C2.76855 29.4141 2.92236 29.7729 3.22998 30.0806C3.5376 30.3882 3.89648 30.542 4.30664 30.542H6.50391C6.47461 30.6592 6.45264 30.7983 6.43799 30.9595C6.42334 31.1206 6.41602 31.2744 6.41602 31.4209C6.41602 31.4209 6.41602 31.4282 6.41602 31.4429C6.41602 31.4575 6.41602 31.4648 6.41602 31.4648C6.41602 32.7246 6.87012 33.8086 7.77832 34.7168C8.68652 35.625 9.77051 36.0791 11.0303 36.0791C12.3193 36.0791 13.4106 35.625 14.3042 34.7168C15.1978 33.8086 15.6445 32.7246 15.6445 31.4648C15.6445 31.3184 15.6372 31.1865 15.6226 31.0693C15.6079 30.9521 15.5859 30.835 15.5566 30.7178L15.6006 30.7617H31.9482C31.9189 30.8496 31.9043 30.9521 31.9043 31.0693C31.9043 31.1865 31.8896 31.3184 31.8604 31.4648C31.8604 31.4941 31.8604 31.5234 31.8604 31.5527C31.8604 31.582 31.8604 31.6113 31.8604 31.6406C31.8604 32.9004 32.3145 33.9844 33.2227 34.8926C34.1309 35.8008 35.2148 36.2549 36.4746 36.2549C37.7637 36.2549 38.8623 35.8008 39.7705 34.8926C40.6787 33.9844 41.1328 32.9004 41.1328 31.6406C41.1328 31.6113 41.1328 31.582 41.1328 31.5527C41.1328 31.5234 41.1328 31.4795 41.1328 31.4209V31.4648C41.1328 31.2891 41.1182 31.1206 41.0889 30.9595C41.0596 30.7983 41.0303 30.6445 41.001 30.498V30.542H44.6484C44.7363 30.542 44.8169 30.5127 44.8901 30.4541C44.9634 30.3955 45 30.3223 45 30.2344V22.8076C45 22.4561 44.8755 22.1631 44.6265 21.9287C44.3774 21.6943 44.0918 21.5771 43.7695 21.5771C43.7695 21.5771 43.7622 21.5771 43.7476 21.5771C43.7329 21.5771 43.7256 21.5771 43.7256 21.5771ZM44.2969 22.8076V23.6426H43.418C43.1543 23.6426 42.9346 23.5474 42.7588 23.3569C42.583 23.1665 42.4951 22.9395 42.4951 22.6758V22.2803H43.7256C43.9014 22.2803 44.0405 22.3315 44.1431 22.4341C44.2456 22.5366 44.2969 22.6611 44.2969 22.8076ZM42.8906 20.9619V21.5771H31.333L30.9375 19.9072H41.8799C42.1729 19.9072 42.4219 20.0098 42.627 20.2148C42.832 20.4199 42.9346 20.6689 42.9346 20.9619H42.8906ZM30.0146 19.2041H21.2695C21.123 19.2041 21.0205 19.1895 20.9619 19.1602C20.9033 19.1309 20.8594 19.1162 20.8301 19.1162V14.9854C20.8301 14.9561 20.8447 14.9341 20.874 14.9194C20.9033 14.9048 20.9326 14.8975 20.9619 14.8975H29.0918L30.0146 19.2041ZM26.0596 9.84375V11.6455H20.2148V9.62402H25.8398C25.8984 9.62402 25.9497 9.646 25.9937 9.68994C26.0376 9.73389 26.0596 9.78516 26.0596 9.84375ZM12.1729 11.6895V9.62402H19.5117V11.6895H12.1729ZM5.36133 9.84375C5.36133 9.78516 5.3833 9.73389 5.42725 9.68994C5.47119 9.646 5.53711 9.62402 5.625 9.62402H11.5137V11.6895H5.36133V9.84375ZM3.47168 13.2715C3.47168 13.0371 3.55957 12.832 3.73535 12.6562C3.91113 12.4805 4.11621 12.3779 4.35059 12.3486H27.7734C27.9785 12.3486 28.1616 12.4146 28.3228 12.5464C28.4839 12.6782 28.5938 12.8467 28.6523 13.0518L28.916 14.1943H20.9619C20.7275 14.1943 20.5371 14.2749 20.3906 14.436C20.2441 14.5972 20.1709 14.7803 20.1709 14.9854V19.1162C20.1709 19.2041 20.2222 19.3579 20.3247 19.5776C20.4272 19.7974 20.7422 19.9072 21.2695 19.9072H30.2344L30.6299 21.5771H3.47168V13.2715ZM3.47168 22.2803H4.48242V22.7197C4.48242 22.8662 4.43115 22.998 4.32861 23.1152C4.22607 23.2324 4.08691 23.291 3.91113 23.291H3.47168V22.2803ZM0.703125 25.3564V17.7539H2.8125V25.3564H0.703125ZM11.0303 35.376C9.94629 35.376 9.02344 34.9951 8.26172 34.2334C7.5 33.4717 7.11914 32.5488 7.11914 31.4648C7.11914 30.3809 7.5 29.458 8.26172 28.6963C9.02344 27.9346 9.94629 27.5537 11.0303 27.5537C12.1143 27.5537 13.0371 27.9346 13.7988 28.6963C14.5605 29.458 14.9414 30.3809 14.9414 31.4648C14.9414 32.5488 14.5605 33.4717 13.7988 34.2334C13.0371 34.9951 12.1143 35.376 11.0303 35.376ZM11.0303 26.8506C10.0635 26.8506 9.18457 27.1289 8.39355 27.6855C7.60254 28.2422 7.0459 28.96 6.72363 29.8389H5.71289L6.94336 26.4551C7.03125 26.25 7.17041 26.0815 7.36084 25.9497C7.55127 25.8179 7.74902 25.752 7.9541 25.752H14.2822C14.5166 25.752 14.729 25.8179 14.9194 25.9497C15.1099 26.0815 15.2344 26.25 15.293 26.4551L16.7432 30.0586H15.4248C15.1025 29.1211 14.5459 28.3521 13.7549 27.7515C12.9639 27.1509 12.0557 26.8506 11.0303 26.8506ZM36.4746 35.376C35.3906 35.376 34.4678 34.9951 33.7061 34.2334C32.9443 33.4717 32.5635 32.5488 32.5635 31.4648C32.5635 30.3809 32.9443 29.458 33.7061 28.6963C34.4678 27.9346 35.3906 27.5537 36.4746 27.5537C37.5586 27.5537 38.4888 27.9346 39.2651 28.6963C40.0415 29.458 40.4297 30.3809 40.4297 31.4648C40.4297 32.5488 40.0415 33.4717 39.2651 34.2334C38.4888 34.9951 37.5586 35.376 36.4746 35.376ZM36.4746 26.8506C35.4785 26.8506 34.5776 27.1509 33.772 27.7515C32.9663 28.3521 32.417 29.1064 32.124 30.0146V30.0586H30.9375L32.5635 26.3672C32.6514 26.1914 32.7905 26.0449 32.981 25.9277C33.1714 25.8105 33.3691 25.752 33.5742 25.752H39.5508C39.7559 25.752 39.9463 25.8105 40.1221 25.9277C40.2979 26.0449 40.4297 26.1914 40.5176 26.3672L42.1436 29.8828H40.7812C40.459 29.0039 39.9097 28.2861 39.1333 27.7295C38.3569 27.1729 37.4707 26.8799 36.4746 26.8506ZM42.9346 29.8389L41.1768 26.1035C41.0303 25.7812 40.8105 25.5249 40.5176 25.3345C40.2246 25.144 39.9023 25.0488 39.5508 25.0488H33.6182C33.2666 25.0488 32.9443 25.144 32.6514 25.3345C32.3584 25.5249 32.1387 25.7812 31.9922 26.1035L30.2344 30.0586H17.4902L15.9521 26.1914C15.8057 25.8398 15.5859 25.5615 15.293 25.3564C15 25.1514 14.6631 25.0488 14.2822 25.0488H7.9541C7.57324 25.0488 7.23633 25.1587 6.94336 25.3784C6.65039 25.5981 6.44531 25.8691 6.32812 26.1914L4.96582 29.8389H4.30664C4.07227 29.8389 3.87451 29.7583 3.71338 29.5972C3.55225 29.436 3.47168 29.2383 3.47168 29.0039V23.9502H3.91113C4.2627 23.9502 4.56299 23.833 4.81201 23.5986C5.06104 23.3643 5.18555 23.0713 5.18555 22.7197V22.2803H30.8936C30.9229 22.2803 30.9521 22.2876 30.9814 22.3022C31.0107 22.3169 31.04 22.3242 31.0693 22.3242C31.0986 22.3242 31.1206 22.3242 31.1353 22.3242C31.1499 22.3242 31.1572 22.3242 31.1572 22.3242C31.1865 22.3242 31.2085 22.3169 31.2231 22.3022C31.2378 22.2876 31.2598 22.2803 31.2891 22.2803H41.792V22.6758C41.792 23.1152 41.9531 23.4961 42.2754 23.8184C42.5977 24.1406 42.9785 24.3018 43.418 24.3018H44.2969V29.8389H42.9346ZM6.15234 19.9072H16.04C16.04 19.9072 16.0474 19.9072 16.062 19.9072C16.0767 19.9072 16.084 19.9072 16.084 19.9072C16.2891 19.9072 16.4575 19.834 16.5894 19.6875C16.7212 19.541 16.7871 19.3799 16.7871 19.2041C16.7871 19.2041 16.7871 19.1968 16.7871 19.1821C16.7871 19.1675 16.7871 19.1602 16.7871 19.1602V14.9414C16.7871 14.9414 16.7871 14.9341 16.7871 14.9194C16.7871 14.9048 16.7871 14.8975 16.7871 14.8975C16.7871 14.7217 16.7212 14.5605 16.5894 14.4141C16.4575 14.2676 16.2891 14.1943 16.084 14.1943C16.084 14.1943 16.0767 14.1943 16.062 14.1943C16.0474 14.1943 16.04 14.1943 16.04 14.1943H6.15234C5.94727 14.1943 5.77881 14.2676 5.64697 14.4141C5.51514 14.5605 5.44922 14.7217 5.44922 14.8975C5.44922 14.8975 5.44922 14.9048 5.44922 14.9194C5.44922 14.9341 5.44922 14.9414 5.44922 14.9414V19.1602C5.44922 19.1602 5.44922 19.1675 5.44922 19.1821C5.44922 19.1968 5.44922 19.2041 5.44922 19.2041C5.44922 19.3799 5.51514 19.541 5.64697 19.6875C5.77881 19.834 5.94727 19.9072 6.15234 19.9072ZM16.084 14.9854V19.2041C16.084 19.2041 16.084 19.2114 16.084 19.2261C16.084 19.2407 16.0693 19.248 16.04 19.248H11.4258V14.9414L16.084 14.9854ZM6.15234 14.8975H10.7666V19.1602H6.1084L6.15234 14.8975Z" fill="white"/>
</svg>
