<svg width="30" height="30" viewBox="0 0 30 30" fill="none" xmlns="http://www.w3.org/2000/svg">
<path d="M13.8459 15.8267L13.5671 16.9439C13.7911 17.5423 14.358 17.9419 15 17.9419C15.642 17.9419 16.2094 17.5423 16.433 16.9448L16.1537 15.8271C15.4022 16.0614 14.5973 16.0612 13.8459 15.8267ZM15 20.8513C13.2247 20.8513 11.6478 21.8023 10.8811 23.2759H12.0905L12.0939 23.2764C12.7563 22.3744 13.8396 21.8212 15 21.8212C16.1609 21.8212 17.2437 22.3744 17.9061 23.2764L17.9095 23.2759H19.1189C18.3522 21.8023 16.7753 20.8513 15 20.8513ZM19.1189 27.1552H17.9095L17.9061 27.1547C17.2437 28.0566 16.1604 28.6099 15 28.6099C13.8391 28.6099 12.7563 28.0566 12.0939 27.1547L12.0905 27.1552H10.8811C11.6478 28.6288 13.2247 29.5798 15 29.5798C16.7753 29.5798 18.3522 28.6288 19.1189 27.1552ZM17.9095 12.1229V9.89904L17.2238 9.21338H12.7762L12.0905 9.89904V12.1229C12.0905 13.7274 13.3954 15.0323 15 15.0323C16.6046 15.0323 17.9095 13.7274 17.9095 12.1229ZM13.5453 10.1832C13.6739 10.1832 13.7972 10.2343 13.8881 10.3252C13.9791 10.4162 14.0302 10.5395 14.0302 10.6681C14.0302 10.7967 13.9791 10.92 13.8881 11.0111C13.7972 11.102 13.6739 11.153 13.5453 11.153C13.4166 11.153 13.2933 11.102 13.2024 11.0111C13.1114 10.92 13.0603 10.7967 13.0603 10.6681C13.0603 10.5395 13.1114 10.4162 13.2024 10.3252C13.2933 10.2343 13.4166 10.1832 13.5453 10.1832ZM16.8373 12.9268C16.4873 13.6276 15.7831 14.0626 15 14.0626C14.2169 14.0626 13.5128 13.6276 13.1627 12.9268L13.1117 12.8245L13.9793 12.3905L14.0302 12.4934C14.2149 12.8629 14.5864 13.0926 15 13.0926C15.4136 13.0926 15.7851 12.8629 15.9698 12.4934L16.0207 12.3911L16.8882 12.825L16.8373 12.9268ZM16.4548 11.153C16.3261 11.153 16.2028 11.102 16.1119 11.0111C16.0209 10.92 15.9698 10.7967 15.9698 10.6681C15.9698 10.5395 16.0209 10.4162 16.1119 10.3252C16.2028 10.2343 16.3261 10.1832 16.4548 10.1832C16.5834 10.1832 16.7067 10.2343 16.7976 10.3252C16.8885 10.4162 16.9397 10.5395 16.9397 10.6681C16.9397 10.7967 16.8885 10.92 16.7976 11.0111C16.7067 11.102 16.5834 11.153 16.4548 11.153ZM11.1207 12.1229V10.1832C10.5858 10.1832 10.1509 10.6182 10.1509 11.153C10.1509 11.6879 10.5858 12.1229 11.1207 12.1229ZM16.9397 25.2155C16.9397 25.7504 17.3747 26.1854 17.9095 26.1854H18.8793V24.2457H17.9095C17.3747 24.2457 16.9397 24.6807 16.9397 25.2155ZM9.81626 27.1552H9.18103V29.5798H11.7967C10.9097 28.9869 10.2201 28.1426 9.81626 27.1552Z" fill="black"/>
<path d="M21.944 18.4663C21.4106 18.1118 20.8003 17.8896 20.1638 17.818L17.25 17.4941C16.8373 18.3514 15.9713 18.9115 15 18.9115C14.0287 18.9115 13.1631 18.3519 12.75 17.4941L9.83566 17.818C9.19921 17.8896 8.58896 18.1118 8.05554 18.4663C7.50631 18.8318 7.05599 19.3275 6.74472 19.9091C6.43344 20.4908 6.2709 21.1404 6.27155 21.8002V23.7606C6.27155 25.0976 7.35921 26.1852 8.69612 26.1852H10.1509V24.2456H9.18103C8.64617 24.2456 8.2112 23.8106 8.2112 23.2758V21.3361H9.18103V23.2758H9.81626C10.6479 21.2323 12.6855 19.8813 15 19.8813C17.3144 19.8813 19.3526 21.2323 20.1837 23.2758H20.819V20.8511H21.7888V23.2758C21.7888 23.8106 21.3538 24.2456 20.819 24.2456H19.8491V26.1852H21.3039C22.6408 26.1852 23.7284 25.0976 23.7284 23.7606V21.8002C23.7291 21.1404 23.5664 20.4907 23.2552 19.909C22.9438 19.3273 22.4934 18.8317 21.944 18.4663Z" fill="black"/>
<path d="M13.1093 26.8588C13.5938 27.3486 14.275 27.6401 15 27.6401C15.725 27.6401 16.4063 27.3486 16.8907 26.8588C16.3403 26.5165 15.9698 25.9103 15.9698 25.2155C15.9698 24.5206 16.3403 23.9144 16.8907 23.5721C16.4063 23.0824 15.725 22.7908 15 22.7908C14.275 22.7908 13.5938 23.0824 13.1093 23.5721C13.6597 23.9144 14.0302 24.5206 14.0302 25.2155C14.0302 25.9103 13.6597 26.5165 13.1093 26.8588ZM11.1207 9.21331H11.4049L12.3747 8.24348H17.6253L18.5951 9.21331H18.8793C19.3118 9.21331 19.7075 9.36024 20.0305 9.60076C20.2259 9.35181 20.3327 9.04485 20.334 8.7284C20.333 8.3955 20.218 8.07299 20.0086 7.81432C19.799 7.55565 19.5074 7.37635 19.1819 7.30615L18.6747 7.19849L18.8158 6.69952C18.8589 6.54628 18.8793 6.42069 18.8793 6.30383C18.8793 5.33594 17.9279 4.56444 16.9126 4.94802L16.4979 5.10464L16.3044 4.70555C16.0586 4.19543 15.5581 3.87926 15 3.87926C14.4419 3.87926 13.9414 4.19543 13.6956 4.70555L13.5026 5.10464L13.088 4.94802C12.0716 4.56396 11.1207 5.33594 11.1207 6.30383C11.1207 6.42069 11.1411 6.54628 11.1842 6.69952L11.3253 7.19849L10.8181 7.30615C10.4927 7.37635 10.2011 7.55565 9.9915 7.81432C9.78196 8.07299 9.6671 8.3955 9.66596 8.7284C9.66596 9.04989 9.777 9.35102 9.96952 9.60076C10.3012 9.35039 10.7052 9.21443 11.1207 9.21331ZM18.8793 12.1228C19.4142 12.1228 19.8491 11.6878 19.8491 11.1529C19.8491 10.6181 19.4142 10.1831 18.8793 10.1831V12.1228ZM18.2034 29.5797H20.819V27.1551H20.1837C19.7799 28.1425 19.0904 28.9869 18.2034 29.5797ZM11.1207 24.2456V26.1853H12.0905C12.6254 26.1853 13.0604 25.7503 13.0604 25.2155C13.0604 24.6806 12.6254 24.2456 12.0905 24.2456H11.1207ZM8.69613 15.0322H6.75648V13.0926H5.78665V16.0022H8.69613V15.0322ZM6.75648 1.45469H8.69613V0.484863H5.78665V3.39435H6.75648V1.45469ZM23.2436 3.39435H24.2133V0.484863H21.3039V1.45469H23.2436V3.39435ZM23.2436 15.0322H21.3039V16.0022H24.2133V13.0926H23.2436V15.0322ZM8.90513 7.75857H4.33191V8.7284H8.69613C8.69613 8.38605 8.77275 8.05825 8.90513 7.75857ZM21.0949 7.75857C21.2273 8.05825 21.3039 8.38605 21.3039 8.7284H25.6681V7.75857H21.0949Z" fill="black"/>
</svg>
