<svg width="50" height="50" viewBox="0 0 50 50" fill="none" xmlns="http://www.w3.org/2000/svg">
<path d="M12.4023 23.7305L8.44727 22.9004C7.89388 22.7702 7.4056 22.8841 6.98242 23.2422C6.55924 23.6003 6.34766 24.056 6.34766 24.6094V26.2695C6.34766 26.9206 6.56738 27.3519 7.00684 27.5635C7.44629 27.7751 7.97526 27.8809 8.59375 27.8809H12.9883C13.4115 27.8809 13.8021 27.8158 14.1602 27.6855C14.5182 27.5553 14.6973 27.2624 14.6973 26.8066V26.5625C14.6973 25.8464 14.4857 25.2279 14.0625 24.707C13.6393 24.1862 13.0859 23.8607 12.4023 23.7305ZM7.8125 26.2695C7.8125 26.2044 7.8125 26.1068 7.8125 25.9766C7.8125 25.8464 7.8125 25.3581 7.8125 24.5117C7.8125 24.4466 7.84505 24.3815 7.91016 24.3164C7.97526 24.2513 8.04036 24.2513 8.10547 24.3164L12.1094 25.1465C12.3698 25.2441 12.5977 25.3988 12.793 25.6104C12.9883 25.8219 13.1022 26.0579 13.1348 26.3184C11.7676 26.3184 10.5713 26.3184 9.5459 26.3184C8.52051 26.3184 7.94271 26.3021 7.8125 26.2695ZM47.9004 15.3809L42.2852 12.7441C41.3411 12.321 40.3727 12.0361 39.3799 11.8896C38.387 11.7432 37.4023 11.7676 36.4258 11.9629L35.5469 10.2539C35.2214 9.47266 34.7168 8.82975 34.0332 8.3252C33.3496 7.82064 32.5846 7.56836 31.7383 7.56836H13.4277C12.5814 7.56836 11.8083 7.80436 11.1084 8.27637C10.4085 8.74837 9.91211 9.375 9.61914 10.1562L6.54297 16.5039C6.21745 15.9831 5.77799 15.5762 5.22461 15.2832C4.67122 14.9902 4.06901 14.8438 3.41797 14.8438H2.09961C1.51367 14.8438 1.01725 15.0472 0.610352 15.4541C0.203451 15.861 0 16.3574 0 16.9434V17.8223C0 18.4082 0.203451 18.9046 0.610352 19.3115C1.01725 19.7184 1.51367 19.9219 2.09961 19.9219H4.15039C3.72721 20.4753 3.40983 21.0856 3.19824 21.7529C2.98665 22.4202 2.88086 23.112 2.88086 23.8281V28.5156C2.88086 29.4271 3.03548 30.306 3.34473 31.1523C3.65397 31.9987 4.13411 32.7799 4.78516 33.4961V37.0117C4.78516 37.793 5.05371 38.4603 5.59082 39.0137C6.12793 39.5671 6.78711 39.8438 7.56836 39.8438H10.4492C11.2305 39.8438 11.8978 39.5671 12.4512 39.0137C13.0046 38.4603 13.2812 37.793 13.2812 37.0117V35.6445H28.9062C30.6315 37.9883 32.5358 39.6891 34.6191 40.7471C36.7025 41.805 37.7604 42.334 37.793 42.334C37.8906 42.3665 37.9801 42.3828 38.0615 42.3828C38.1429 42.3828 38.2487 42.3665 38.3789 42.334C38.3789 42.334 38.9974 42.041 40.2344 41.4551C41.4388 40.9017 42.7653 40.0309 44.2139 38.8428C45.6624 37.6546 46.9889 36.1328 48.1934 34.2773C49.3978 32.3893 50 30.127 50 27.4902V18.75C50 18.0339 49.8047 17.3747 49.4141 16.7725C49.0234 16.1702 48.5189 15.7064 47.9004 15.3809ZM11.0352 10.791C11.2305 10.2702 11.5397 9.86328 11.9629 9.57031C12.3861 9.27734 12.8743 9.13086 13.4277 9.13086H31.7383C32.2591 9.13086 32.7474 9.28548 33.2031 9.59473C33.6589 9.90397 34.0007 10.319 34.2285 10.8398L34.9121 12.3535C34.7493 12.3861 34.5947 12.4349 34.4482 12.5C34.3018 12.5651 34.1471 12.6465 33.9844 12.7441L28.3691 15.3809C27.7507 15.7064 27.2461 16.1621 26.8555 16.748C26.4648 17.334 26.2695 17.9688 26.2695 18.6523H7.12891C7.25911 18.4245 7.45443 18.0827 7.71484 17.627C7.97526 17.1712 9.08203 14.8926 11.0352 10.791ZM1.5625 17.8223V16.9434C1.5625 16.7806 1.61133 16.6504 1.70898 16.5527C1.80664 16.4551 1.93685 16.4062 2.09961 16.4062H3.41797C4.19922 16.4062 4.7526 16.6504 5.07812 17.1387C5.40365 17.627 5.61523 17.9362 5.71289 18.0664C5.68034 18.1315 5.63965 18.1885 5.59082 18.2373C5.54199 18.2861 5.46875 18.3594 5.37109 18.457H2.09961C1.93685 18.3919 1.80664 18.3105 1.70898 18.2129C1.61133 18.1152 1.5625 17.985 1.5625 17.8223ZM11.7188 36.9629C11.7188 37.321 11.5967 37.6139 11.3525 37.8418C11.1084 38.0697 10.8073 38.1836 10.4492 38.1836H7.51953C7.16146 38.2487 6.86035 38.151 6.61621 37.8906C6.37207 37.6302 6.25 37.321 6.25 36.9629V34.668C6.70573 34.9609 7.20215 35.1807 7.73926 35.3271C8.27637 35.4736 8.82161 35.5469 9.375 35.5469H11.7188V36.9629ZM9.27734 34.082C7.8776 34.082 6.69759 33.5042 5.7373 32.3486C4.77702 31.193 4.29688 29.8828 4.29688 28.418V23.7305C4.29688 23.0794 4.42708 22.4447 4.6875 21.8262C4.94792 21.2077 5.30599 20.6543 5.76172 20.166H26.2695V27.0508H17.6758C17.4805 27.0508 17.3014 27.1159 17.1387 27.2461C16.9759 27.3763 16.8945 27.5716 16.8945 27.832C16.8945 28.0599 16.9596 28.2471 17.0898 28.3936C17.2201 28.54 17.4154 28.6133 17.6758 28.6133H26.3184C26.3509 28.8737 26.3835 29.126 26.416 29.3701C26.4486 29.6143 26.4974 29.8503 26.5625 30.0781H17.6758C17.4805 30.0781 17.3014 30.1514 17.1387 30.2979C16.9759 30.4443 16.8945 30.6315 16.8945 30.8594C16.8945 31.0872 16.9596 31.2744 17.0898 31.4209C17.2201 31.5674 17.4154 31.6406 17.6758 31.6406H26.8555C27.0182 32.0638 27.1891 32.487 27.3682 32.9102C27.5472 33.3333 27.7507 33.724 27.9785 34.082H9.27734ZM48.4375 27.4902C48.4375 29.6712 47.9818 31.5592 47.0703 33.1543C46.1263 34.7493 45.0602 36.084 43.8721 37.1582C42.6839 38.2324 41.5202 39.0625 40.3809 39.6484C39.2741 40.2344 38.5254 40.6087 38.1348 40.7715C36.735 40.2181 35.4004 39.502 34.1309 38.623C32.8939 37.7441 31.8034 36.735 30.8594 35.5957C29.9154 34.4564 29.1667 33.2194 28.6133 31.8848C28.0924 30.5176 27.832 29.0527 27.832 27.4902C27.832 26.0579 27.832 24.7803 27.832 23.6572C27.832 22.5342 27.832 20.8984 27.832 18.75C27.832 18.3268 27.9378 17.9443 28.1494 17.6025C28.361 17.2607 28.6621 16.9922 29.0527 16.7969L34.668 14.1602C35.8073 13.6068 36.9873 13.3301 38.208 13.3301C39.4287 13.3301 40.5924 13.6068 41.6992 14.1602L47.3633 16.7969C47.6888 16.9922 47.9736 17.2607 48.2178 17.6025C48.4619 17.9443 48.584 18.3268 48.584 18.75V27.4902H48.4375ZM45.8008 18.6035L40.625 16.1621C39.8438 15.7715 38.9974 15.5762 38.0859 15.5762C37.1745 15.5762 36.3281 15.7715 35.5469 16.1621L30.4688 18.6035C30.3385 18.6686 30.2246 18.7581 30.127 18.8721C30.0293 18.986 29.9805 19.1243 29.9805 19.2871V27.4902C29.9805 29.0527 30.2734 30.4199 30.8594 31.5918C31.4453 32.7962 32.1533 33.8379 32.9834 34.7168C33.8135 35.5957 34.668 36.3281 35.5469 36.9141C36.4258 37.4674 37.1582 37.8906 37.7441 38.1836C37.8418 38.2487 37.9557 38.2812 38.0859 38.2812C38.2161 38.2812 38.3301 38.2487 38.4277 38.1836C39.0137 37.8906 39.7461 37.4674 40.625 36.9141C41.5039 36.3281 42.3584 35.5957 43.1885 34.7168C44.0186 33.8379 44.7266 32.7962 45.3125 31.5918C45.8984 30.4199 46.1914 29.0527 46.1914 27.4902V19.2871C46.1914 19.1243 46.1507 18.986 46.0693 18.8721C45.988 18.7581 45.8984 18.6686 45.8008 18.6035ZM44.6777 27.4902C44.6777 29.9967 43.8558 31.9987 42.2119 33.4961C40.568 34.9935 39.209 36.0352 38.1348 36.6211C36.8327 35.9375 35.4085 34.8633 33.8623 33.3984C32.3161 31.9336 31.543 29.9642 31.543 27.4902V19.7754L36.2305 17.4805C36.8164 17.2201 37.443 17.0898 38.1104 17.0898C38.7777 17.0898 39.4043 17.2201 39.9902 17.4805L44.6777 19.7754V27.4902ZM35.0586 27.2461C34.9284 27.1484 34.7575 27.1159 34.5459 27.1484C34.3343 27.181 34.1471 27.2786 33.9844 27.4414C33.8216 27.5716 33.7646 27.7425 33.8135 27.9541C33.8623 28.1657 33.9681 28.3529 34.1309 28.5156L37.1094 30.7617C37.2721 30.8919 37.4593 30.9408 37.6709 30.9082C37.8825 30.8757 38.0534 30.778 38.1836 30.6152L42.5781 24.9023C42.7083 24.7721 42.7572 24.6012 42.7246 24.3896C42.6921 24.1781 42.5944 23.9909 42.4316 23.8281C42.2689 23.6979 42.0817 23.6491 41.8701 23.6816C41.6585 23.7142 41.4714 23.8118 41.3086 23.9746L37.4023 29.0527L35.0586 27.2461Z" fill="white"/>
</svg>
