<svg width="50" height="50" viewBox="0 0 50 50" fill="none" xmlns="http://www.w3.org/2000/svg">
<path d="M15.625 4.6875H17.1875V8.59375H18.75V4.6875H20.3125V3.125H15.625V4.6875ZM23.4375 3.125H22.6562C22.4935 3.125 22.3389 3.17383 22.1924 3.27148C22.0459 3.36914 21.9564 3.49935 21.9238 3.66211L20.3613 8.34961L21.8262 8.83789L22.168 7.8125H23.9258L24.2676 8.83789L25.7324 8.34961L24.1699 3.66211C24.1374 3.49935 24.0479 3.36914 23.9014 3.27148C23.7549 3.17383 23.6003 3.125 23.4375 3.125ZM22.7051 6.25L23.0469 5.22461L23.3887 6.25H22.7051ZM30.6152 2.68555L29.2969 4.49219L27.9785 2.68555L26.709 3.56445L28.3203 5.85938L26.709 8.1543L27.9785 9.0332L29.2969 7.22656L30.6152 9.0332L31.8848 8.1543L30.2734 5.85938L31.8848 3.56445L30.6152 2.68555ZM32.8125 3.125H34.375V8.59375H32.8125V3.125ZM7.8125 29.6875C6.93359 29.6875 6.19303 29.9886 5.59082 30.5908C4.98861 31.193 4.6875 31.9336 4.6875 32.8125C4.6875 33.6914 4.98861 34.432 5.59082 35.0342C6.19303 35.6364 6.93359 35.9375 7.8125 35.9375C8.69141 35.9375 9.43197 35.6364 10.0342 35.0342C10.6364 34.432 10.9375 33.6914 10.9375 32.8125C10.9375 31.9336 10.6364 31.193 10.0342 30.5908C9.43197 29.9886 8.69141 29.6875 7.8125 29.6875ZM7.8125 34.375C7.38932 34.375 7.02311 34.2204 6.71387 33.9111C6.40462 33.6019 6.25 33.2357 6.25 32.8125C6.25 32.3893 6.40462 32.0231 6.71387 31.7139C7.02311 31.4046 7.38932 31.25 7.8125 31.25C8.23568 31.25 8.60189 31.4046 8.91113 31.7139C9.22038 32.0231 9.375 32.3893 9.375 32.8125C9.375 33.2357 9.22038 33.6019 8.91113 33.9111C8.60189 34.2204 8.23568 34.375 7.8125 34.375ZM39.0625 32.8125C39.0625 33.6914 39.3636 34.432 39.9658 35.0342C40.568 35.6364 41.3086 35.9375 42.1875 35.9375C43.0664 35.9375 43.807 35.6364 44.4092 35.0342C45.0114 34.432 45.3125 33.6914 45.3125 32.8125C45.3125 31.9336 45.0114 31.193 44.4092 30.5908C43.807 29.9886 43.0664 29.6875 42.1875 29.6875C41.3086 29.6875 40.568 29.9886 39.9658 30.5908C39.3636 31.193 39.0625 31.9336 39.0625 32.8125ZM42.1875 31.25C42.6107 31.25 42.9769 31.4046 43.2861 31.7139C43.5954 32.0231 43.75 32.3893 43.75 32.8125C43.75 33.2357 43.5954 33.6019 43.2861 33.9111C42.9769 34.2204 42.6107 34.375 42.1875 34.375C41.7643 34.375 41.3981 34.2204 41.0889 33.9111C40.7796 33.6019 40.625 33.2357 40.625 32.8125C40.625 32.3893 40.7796 32.0231 41.0889 31.7139C41.3981 31.4046 41.7643 31.25 42.1875 31.25ZM32.0312 28.125H17.9688C16.4714 28.125 15.1855 28.6621 14.1113 29.7363C13.0371 30.8105 12.5 32.0964 12.5 33.5938V35.1562C12.5 35.3841 12.5732 35.5713 12.7197 35.7178C12.8662 35.8643 13.0534 35.9375 13.2812 35.9375H36.7188C36.9466 35.9375 37.1338 35.8643 37.2803 35.7178C37.4268 35.5713 37.5 35.3841 37.5 35.1562V33.5938C37.5 32.0964 36.9629 30.8105 35.8887 29.7363C34.8145 28.6621 33.5286 28.125 32.0312 28.125ZM35.9375 34.375H14.0625V33.5938C14.0625 32.5195 14.445 31.5999 15.21 30.835C15.9749 30.07 16.8945 29.6875 17.9688 29.6875H32.0312C33.1055 29.6875 34.0251 30.07 34.79 30.835C35.555 31.5999 35.9375 32.5195 35.9375 33.5938V34.375ZM16.4062 32.0312H33.5938V33.5938H16.4062V32.0312ZM8.74023 23.1445C8.83789 23.2422 8.93555 23.3154 9.0332 23.3643C9.13086 23.4131 9.24479 23.4375 9.375 23.4375H40.625C40.8529 23.4375 41.04 23.3643 41.1865 23.2178C41.333 23.0713 41.4062 22.8841 41.4062 22.6562C41.4062 22.6237 41.4062 22.5911 41.4062 22.5586C41.4062 22.526 41.4062 22.4935 41.4062 22.4609L39.4531 14.0625C39.2904 13.3789 38.9404 12.8174 38.4033 12.3779C37.8662 11.9385 37.2396 11.7188 36.5234 11.7188H13.4766C12.7604 11.7188 12.1338 11.9385 11.5967 12.3779C11.0596 12.8174 10.7096 13.3626 10.5469 14.0137V14.0625L8.59375 22.4609C8.59375 22.4935 8.59375 22.526 8.59375 22.5586C8.59375 22.5911 8.59375 22.6237 8.59375 22.6562C8.59375 22.7539 8.61003 22.8434 8.64258 22.9248C8.67513 23.0062 8.70768 23.0794 8.74023 23.1445ZM12.0605 14.4043C12.1582 14.0788 12.3372 13.8102 12.5977 13.5986C12.8581 13.387 13.151 13.2812 13.4766 13.2812H36.5234C36.849 13.2812 37.1419 13.387 37.4023 13.5986C37.6628 13.8102 37.8418 14.0788 37.9395 14.4043L39.6484 21.875H10.3516L12.0605 14.4043ZM44.5312 25H46.875C47.526 25 48.0794 24.7721 48.5352 24.3164C48.9909 23.8607 49.2188 23.3073 49.2188 22.6562C49.2188 22.0052 48.9909 21.4518 48.5352 20.9961C48.0794 20.5404 47.526 20.3125 46.875 20.3125H44.5312C44.3359 20.3125 44.1406 20.3369 43.9453 20.3857C43.75 20.4346 43.571 20.5078 43.4082 20.6055H43.457L42.041 14.0137C41.8132 12.679 41.1947 11.5723 40.1855 10.6934C39.1764 9.81445 37.9883 9.375 36.6211 9.375H36.5723C36.6048 9.24479 36.6374 9.11458 36.6699 8.98438C36.7025 8.85417 36.7188 8.72396 36.7188 8.59375V3.125C36.7188 2.47396 36.4909 1.92057 36.0352 1.46484C35.5794 1.00911 35.026 0.78125 34.375 0.78125H15.625C14.974 0.78125 14.4206 1.00911 13.9648 1.46484C13.5091 1.92057 13.2812 2.47396 13.2812 3.125V8.59375C13.2812 8.72396 13.2975 8.8623 13.3301 9.00879C13.3626 9.15527 13.3952 9.27734 13.4277 9.375H13.3789C13.3789 9.375 13.3626 9.375 13.3301 9.375C11.9954 9.375 10.8236 9.80632 9.81445 10.6689C8.80534 11.5316 8.20312 12.6139 8.00781 13.916V13.9648L6.54297 20.6055C6.41276 20.5078 6.25 20.4346 6.05469 20.3857C5.85938 20.3369 5.66406 20.3125 5.46875 20.3125H3.125C2.47396 20.3125 1.92057 20.5404 1.46484 20.9961C1.00911 21.4518 0.78125 22.0052 0.78125 22.6562C0.78125 23.3073 1.00911 23.8607 1.46484 24.3164C1.92057 24.7721 2.47396 25 3.125 25H5.46875C5.5013 25 5.52572 25 5.54199 25C5.55827 25 5.58268 25 5.61523 25L5.56641 25.2441C4.58984 25.8626 3.80859 26.7008 3.22266 27.7588C2.63672 28.8167 2.34375 29.9642 2.34375 31.2012C2.34375 31.2012 2.34375 31.2093 2.34375 31.2256C2.34375 31.2419 2.34375 31.25 2.34375 31.25V36.8652C1.88802 37.028 1.51367 37.3047 1.2207 37.6953C0.927734 38.0859 0.78125 38.5417 0.78125 39.0625V40.625C0.78125 41.276 1.00911 41.8294 1.46484 42.2852C1.92057 42.7409 2.47396 42.9688 3.125 42.9688H4.6875V46.0938C4.6875 46.9727 4.98861 47.7132 5.59082 48.3154C6.19303 48.9176 6.93359 49.2188 7.8125 49.2188C8.69141 49.2188 9.43197 48.9176 10.0342 48.3154C10.6364 47.7132 10.9375 46.9727 10.9375 46.0938V42.9688H39.0625V46.0938C39.0625 46.9727 39.3636 47.7132 39.9658 48.3154C40.568 48.9176 41.3086 49.2188 42.1875 49.2188C43.0664 49.2188 43.807 48.9176 44.4092 48.3154C45.0114 47.7132 45.3125 46.9727 45.3125 46.0938V42.9688H46.875C47.526 42.9688 48.0794 42.7409 48.5352 42.2852C48.9909 41.8294 49.2188 41.276 49.2188 40.625V39.0625C49.2188 38.5417 49.0723 38.0859 48.7793 37.6953C48.4863 37.3047 48.112 37.028 47.6562 36.8652V31.25C47.6562 31.25 47.6562 31.2419 47.6562 31.2256C47.6562 31.2093 47.6562 31.2012 47.6562 31.2012C47.6562 29.9642 47.3633 28.8167 46.7773 27.7588C46.1914 26.7008 45.4102 25.8626 44.4336 25.2441L44.3848 25C44.4173 25 44.4417 25 44.458 25C44.4743 25 44.4987 25 44.5312 25ZM44.5312 21.875H46.875C47.1029 21.875 47.29 21.9482 47.4365 22.0947C47.583 22.2412 47.6562 22.4284 47.6562 22.6562C47.6562 22.8841 47.583 23.0713 47.4365 23.2178C47.29 23.3643 47.1029 23.4375 46.875 23.4375H44.5312C44.4336 23.4375 44.3359 23.4131 44.2383 23.3643C44.1406 23.3154 44.0592 23.2585 43.9941 23.1934L43.7988 22.3633C43.8639 22.2331 43.9616 22.1191 44.0918 22.0215C44.222 21.9238 44.3685 21.875 44.5312 21.875ZM14.8438 8.59375V3.125C14.8438 2.89714 14.917 2.70996 15.0635 2.56348C15.21 2.41699 15.3971 2.34375 15.625 2.34375H34.375C34.6029 2.34375 34.79 2.41699 34.9365 2.56348C35.083 2.70996 35.1562 2.89714 35.1562 3.125V8.59375C35.1562 8.82161 35.083 9.00879 34.9365 9.15527C34.79 9.30176 34.6029 9.375 34.375 9.375H15.625C15.3971 9.375 15.21 9.30176 15.0635 9.15527C14.917 9.00879 14.8438 8.82161 14.8438 8.59375ZM9.52148 14.2578C9.68425 13.3138 10.1237 12.5244 10.8398 11.8896C11.556 11.2549 12.4023 10.9375 13.3789 10.9375H36.6211C37.5977 10.9375 38.4521 11.2549 39.1846 11.8896C39.917 12.5244 40.3483 13.3138 40.4785 14.2578L42.6758 24.4629C42.4154 24.3652 42.1468 24.3001 41.8701 24.2676C41.5934 24.235 41.3249 24.2188 41.0645 24.2188H8.93555C8.67513 24.2188 8.39844 24.235 8.10547 24.2676C7.8125 24.3001 7.53581 24.3652 7.27539 24.4629H7.32422L9.52148 14.2578ZM5.46875 23.4375H3.125C2.89714 23.4375 2.70996 23.3643 2.56348 23.2178C2.41699 23.0713 2.34375 22.8841 2.34375 22.6562C2.34375 22.4284 2.41699 22.2412 2.56348 22.0947C2.70996 21.9482 2.89714 21.875 3.125 21.875H5.46875C5.63151 21.875 5.77799 21.9238 5.9082 22.0215C6.03841 22.1191 6.13607 22.2331 6.20117 22.3633L6.00586 23.1934C5.94076 23.2585 5.85938 23.3154 5.76172 23.3643C5.66406 23.4131 5.56641 23.4375 5.46875 23.4375ZM9.375 46.0938C9.375 46.5169 9.22038 46.8831 8.91113 47.1924C8.60189 47.5016 8.23568 47.6562 7.8125 47.6562C7.38932 47.6562 7.02311 47.5016 6.71387 47.1924C6.40462 46.8831 6.25 46.5169 6.25 46.0938V42.9688H9.375V46.0938ZM43.75 46.0938C43.75 46.5169 43.5954 46.8831 43.2861 47.1924C42.9769 47.5016 42.6107 47.6562 42.1875 47.6562C41.7643 47.6562 41.3981 47.5016 41.0889 47.1924C40.7796 46.8831 40.625 46.5169 40.625 46.0938V42.9688H43.75V46.0938ZM47.6562 40.625C47.6562 40.8529 47.583 41.04 47.4365 41.1865C47.29 41.333 47.1029 41.4062 46.875 41.4062H3.125C2.89714 41.4062 2.70996 41.333 2.56348 41.1865C2.41699 41.04 2.34375 40.8529 2.34375 40.625V39.0625C2.34375 38.8346 2.41699 38.6475 2.56348 38.501C2.70996 38.3545 2.89714 38.2812 3.125 38.2812H46.875C47.1029 38.2812 47.29 38.3545 47.4365 38.501C47.583 38.6475 47.6562 38.8346 47.6562 39.0625V40.625ZM46.0938 31.25V36.7188H3.90625V31.25C3.90625 31.2174 3.90625 31.1849 3.90625 31.1523C3.90625 31.1198 3.90625 31.0872 3.90625 31.0547C3.90625 29.6224 4.39453 28.4017 5.37109 27.3926C6.34766 26.3835 7.53581 25.8464 8.93555 25.7812H41.0645C42.4642 25.8464 43.6523 26.3835 44.6289 27.3926C45.6055 28.4017 46.0938 29.6224 46.0938 31.0547C46.0938 31.0872 46.0938 31.1198 46.0938 31.1523C46.0938 31.1849 46.0938 31.2174 46.0938 31.25Z" fill="white"/>
</svg>
