<svg width="50" height="50" viewBox="0 0 50 50" fill="none" xmlns="http://www.w3.org/2000/svg">
<path d="M49.9512 28.3691C49.4954 27.36 48.7386 26.4404 47.6807 25.6104C46.6227 24.7803 45.2799 24.1048 43.6523 23.584C42.4154 23.1608 41.0807 22.8271 39.6484 22.583C38.2161 22.3389 36.7839 22.2168 35.3516 22.2168L26.8555 16.7969H21.8262V18.2617H26.4648L32.6172 22.2168H14.8926L13.2812 20.6055L16.8945 18.2617H20.3613V16.7969H16.5039L11.8652 19.7754L9.57031 20.0195L8.59375 18.2617H10.2539V16.0645C10.2539 15.4785 10.0423 14.9658 9.61914 14.5264C9.19596 14.0869 8.67513 13.8672 8.05664 13.8672H0V14.5996C0 15.5436 0.309245 16.3574 0.927734 17.041C1.54622 17.7246 2.3112 18.1315 3.22266 18.2617L4.54102 20.6543L2.44141 20.8984L0 24.1699V33.1055L4.78516 33.8867C5.24089 34.5378 5.8431 35.0749 6.5918 35.498C7.34049 35.9212 8.1543 36.1328 9.0332 36.1328C9.91211 36.1328 10.7178 35.9294 11.4502 35.5225C12.1826 35.1156 12.7767 34.5866 13.2324 33.9355H29.3945V32.4707H13.9648C14.0299 32.2428 14.0788 32.0068 14.1113 31.7627C14.1439 31.5186 14.1602 31.2663 14.1602 31.0059C14.1602 29.5736 13.6556 28.361 12.6465 27.3682C11.6374 26.3753 10.4329 25.8789 9.0332 25.8789C7.63346 25.8789 6.42904 26.3753 5.41992 27.3682C4.41081 28.361 3.90625 29.5736 3.90625 31.0059C3.90625 31.2012 3.92253 31.4046 3.95508 31.6162C3.98763 31.8278 4.02018 32.0475 4.05273 32.2754L1.46484 31.8359V24.6582L3.22266 22.2656L11.8652 21.2402L14.3066 23.6816H35.1562C36.5234 23.6816 37.9069 23.7874 39.3066 23.999C40.7064 24.2106 41.9922 24.528 43.1641 24.9512C43.9779 25.2116 44.8405 25.5859 45.752 26.0742C46.6634 26.5625 47.4121 27.181 47.998 27.9297H46.3379V29.3945H48.5352V31.7383C48.5352 31.9336 48.4619 32.1045 48.3154 32.251C48.1689 32.3975 47.998 32.4707 47.8027 32.4707H43.2617C43.3268 32.2428 43.3757 32.0068 43.4082 31.7627C43.4408 31.5186 43.457 31.2663 43.457 31.0059C43.457 29.5736 42.9525 28.361 41.9434 27.3682C40.9342 26.3753 39.7298 25.8789 38.3301 25.8789C36.9303 25.8789 35.7259 26.3753 34.7168 27.3682C33.7077 28.361 33.2031 29.5736 33.2031 31.0059C33.2031 31.2663 33.2194 31.5186 33.252 31.7627C33.2845 32.0068 33.3333 32.2428 33.3984 32.4707H30.8594V33.9355H34.1309C34.5866 34.5866 35.1807 35.1156 35.9131 35.5225C36.6455 35.9294 37.4512 36.1328 38.3301 36.1328C39.209 36.1328 40.0146 35.9294 40.7471 35.5225C41.4795 35.1156 42.0736 34.5866 42.5293 33.9355H47.8027C48.4212 33.9355 48.9421 33.7158 49.3652 33.2764C49.7884 32.8369 50 32.3242 50 31.7383V28.5156L49.9512 28.3691ZM9.0332 27.3438C10.0423 27.3438 10.9049 27.7018 11.6211 28.418C12.3372 29.1341 12.6953 29.9967 12.6953 31.0059C12.6953 32.015 12.3372 32.8776 11.6211 33.5938C10.9049 34.3099 10.0423 34.668 9.0332 34.668C8.02409 34.668 7.16146 34.3099 6.44531 33.5938C5.72917 32.8776 5.37109 32.015 5.37109 31.0059C5.37109 29.9967 5.72917 29.1341 6.44531 28.418C7.16146 27.7018 8.02409 27.3438 9.0332 27.3438ZM1.61133 15.332H8.05664C8.25195 15.332 8.42285 15.4053 8.56934 15.5518C8.71582 15.6982 8.78906 15.8691 8.78906 16.0645V16.7969H3.66211C3.17383 16.7969 2.74251 16.6585 2.36816 16.3818C1.99382 16.1051 1.74154 15.7552 1.61133 15.332ZM4.93164 18.2617H6.88477L8.00781 20.2148L6.15234 20.459L4.93164 18.2617ZM38.3301 34.668C37.321 34.668 36.4583 34.3099 35.7422 33.5938C35.026 32.8776 34.668 32.015 34.668 31.0059C34.668 29.9967 35.026 29.1341 35.7422 28.418C36.4583 27.7018 37.321 27.3438 38.3301 27.3438C39.3392 27.3438 40.2018 27.7018 40.918 28.418C41.6341 29.1341 41.9922 29.9967 41.9922 31.0059C41.9922 32.015 41.6341 32.8776 40.918 33.5938C40.2018 34.3099 39.3392 34.668 38.3301 34.668ZM38.3301 28.8086C37.7116 28.8086 37.1908 29.0202 36.7676 29.4434C36.3444 29.8665 36.1328 30.3874 36.1328 31.0059C36.1328 31.5918 36.3444 32.1045 36.7676 32.5439C37.1908 32.9834 37.7116 33.2031 38.3301 33.2031C38.9486 33.2031 39.4694 32.9834 39.8926 32.5439C40.3158 32.1045 40.5273 31.5918 40.5273 31.0059C40.5273 30.3874 40.3158 29.8665 39.8926 29.4434C39.4694 29.0202 38.9486 28.8086 38.3301 28.8086ZM38.3301 31.7383C38.1348 31.7383 37.9639 31.665 37.8174 31.5186C37.6709 31.3721 37.5977 31.2012 37.5977 31.0059C37.5977 30.8105 37.6709 30.6396 37.8174 30.4932C37.9639 30.3467 38.1348 30.2734 38.3301 30.2734C38.5254 30.2734 38.6963 30.3467 38.8428 30.4932C38.9893 30.6396 39.0625 30.8105 39.0625 31.0059C39.0625 31.2012 38.9893 31.3721 38.8428 31.5186C38.6963 31.665 38.5254 31.7383 38.3301 31.7383ZM9.0332 33.2031C9.65169 33.2031 10.1725 32.9834 10.5957 32.5439C11.0189 32.1045 11.2305 31.5918 11.2305 31.0059C11.2305 30.3874 11.0189 29.8665 10.5957 29.4434C10.1725 29.0202 9.65169 28.8086 9.0332 28.8086C8.41471 28.8086 7.89388 29.0202 7.4707 29.4434C7.04753 29.8665 6.83594 30.3874 6.83594 31.0059C6.83594 31.5918 7.04753 32.1045 7.4707 32.5439C7.89388 32.9834 8.41471 33.2031 9.0332 33.2031ZM9.0332 30.2734C9.22852 30.2734 9.39941 30.3467 9.5459 30.4932C9.69238 30.6396 9.76562 30.8105 9.76562 31.0059C9.76562 31.2012 9.69238 31.3721 9.5459 31.5186C9.39941 31.665 9.22852 31.7383 9.0332 31.7383C8.83789 31.7383 8.66699 31.665 8.52051 31.5186C8.37402 31.3721 8.30078 31.2012 8.30078 31.0059C8.30078 30.8105 8.37402 30.6396 8.52051 30.4932C8.66699 30.3467 8.83789 30.2734 9.0332 30.2734ZM27.832 25.1465H29.2969V26.6113H27.832V25.1465ZM30.7617 25.1465H32.2266V26.6113H30.7617V25.1465ZM14.5996 25.1465H17.5293V26.6113H14.5996V25.1465Z" fill="white"/>
</svg>
