<svg width="50" height="50" viewBox="0 0 50 50" fill="none" xmlns="http://www.w3.org/2000/svg">
<path d="M44.9219 22.8516L43.1152 20.752H43.8965C44.5475 20.752 45.1091 20.516 45.5811 20.0439C46.0531 19.5719 46.2891 19.0104 46.2891 18.3594V17.5781C46.2891 16.8945 46.0531 16.3167 45.5811 15.8447C45.1091 15.3727 44.5475 15.1367 43.8965 15.1367H43.2129C42.9199 15.1367 42.6758 15.2425 42.4805 15.4541C42.2852 15.6657 42.1875 15.918 42.1875 16.2109C42.1875 16.4714 42.2852 16.7074 42.4805 16.9189C42.6758 17.1305 42.9199 17.2363 43.2129 17.2363H43.8965C43.9941 17.2363 44.0755 17.2689 44.1406 17.334C44.2057 17.3991 44.2383 17.4805 44.2383 17.5781V18.3594C44.2383 18.457 44.2057 18.5384 44.1406 18.6035C44.0755 18.6686 43.9941 18.7012 43.8965 18.7012H42.4316L40.8691 13.5742C40.3483 11.9466 39.4124 10.6283 38.0615 9.61914C36.7106 8.61003 35.1725 8.10547 33.4473 8.10547H16.5527C14.8275 8.10547 13.2894 8.61003 11.9385 9.61914C10.5876 10.6283 9.65169 11.9466 9.13086 13.5742L7.56836 18.7012H6.10352C6.00586 18.7012 5.92448 18.6686 5.85938 18.6035C5.79427 18.5384 5.76172 18.457 5.76172 18.3594V17.5781C5.76172 17.4805 5.79427 17.3991 5.85938 17.334C5.92448 17.2689 6.00586 17.2363 6.10352 17.2363H6.78711C7.08008 17.2363 7.32422 17.1305 7.51953 16.9189C7.71484 16.7074 7.8125 16.4714 7.8125 16.2109C7.8125 15.918 7.71484 15.6657 7.51953 15.4541C7.32422 15.2425 7.08008 15.1367 6.78711 15.1367H6.10352C5.45247 15.1367 4.89095 15.3727 4.41895 15.8447C3.94694 16.3167 3.71094 16.8945 3.71094 17.5781V18.3594C3.71094 19.0104 3.94694 19.5719 4.41895 20.0439C4.89095 20.516 5.45247 20.752 6.10352 20.752H6.88477L5.07812 22.8516C4.52474 23.4701 4.09342 24.1862 3.78418 25C3.47493 25.8138 3.32031 26.6602 3.32031 27.5391V33.4961C3.32031 34.1471 3.48307 34.7331 3.80859 35.2539C4.13411 35.7747 4.57357 36.1816 5.12695 36.4746V38.8184C5.12695 39.6647 5.42806 40.3971 6.03027 41.0156C6.63249 41.6341 7.37305 41.9434 8.25195 41.9434H11.8164C12.6628 41.9434 13.3952 41.6341 14.0137 41.0156C14.6322 40.3971 14.9414 39.6647 14.9414 38.8184V36.9141H35.0586V38.8184C35.0586 39.6647 35.3678 40.3971 35.9863 41.0156C36.6048 41.6341 37.3372 41.9434 38.1836 41.9434H41.748C42.627 41.9434 43.3675 41.6341 43.9697 41.0156C44.5719 40.3971 44.873 39.6647 44.873 38.8184V36.4746C45.3939 36.1816 45.8252 35.7747 46.167 35.2539C46.5088 34.7331 46.6797 34.1471 46.6797 33.4961V27.5391C46.6797 26.6602 46.5251 25.8138 46.2158 25C45.9066 24.1862 45.4753 23.4701 44.9219 22.8516ZM6.68945 24.2188L8.64258 21.9238C8.70768 21.8587 8.75651 21.7936 8.78906 21.7285C8.82161 21.6634 8.85417 21.5983 8.88672 21.5332L9.27734 20.166C9.27734 20.166 9.28548 20.1497 9.30176 20.1172C9.31803 20.0846 9.34245 20.0521 9.375 20.0195L11.1328 14.209C11.5234 13.0046 12.2152 12.0361 13.208 11.3037C14.2008 10.5713 15.332 10.2051 16.6016 10.2051H33.4473C34.7168 10.2051 35.848 10.5713 36.8408 11.3037C37.8337 12.0361 38.5091 13.0046 38.8672 14.209L40.6738 20.0195C40.6738 20.0195 40.6738 20.0358 40.6738 20.0684C40.6738 20.1009 40.6901 20.1335 40.7227 20.166L41.1621 21.5332C41.1621 21.5983 41.1784 21.6634 41.2109 21.7285C41.2435 21.7936 41.2923 21.8587 41.3574 21.9238L43.3594 24.2188C43.75 24.6745 44.0511 25.1872 44.2627 25.7568C44.4743 26.3265 44.5801 26.9206 44.5801 27.5391V30.5664H39.8438C39.5182 30.5664 39.2253 30.4443 38.9648 30.2002C38.7044 29.9561 38.5742 29.6549 38.5742 29.2969V27.9785C38.5742 27.6204 38.6963 27.3193 38.9404 27.0752C39.1846 26.8311 39.4857 26.709 39.8438 26.709H42.3828C42.6758 26.709 42.9281 26.6032 43.1396 26.3916C43.3512 26.18 43.457 25.9277 43.457 25.6348C43.457 25.3418 43.3512 25.0977 43.1396 24.9023C42.9281 24.707 42.6758 24.6094 42.3828 24.6094H39.8438C38.9323 24.6094 38.151 24.9349 37.5 25.5859C36.849 26.237 36.5234 27.0345 36.5234 27.9785V29.2969C36.5234 30.2083 36.849 30.9977 37.5 31.665C38.151 32.3324 38.9323 32.666 39.8438 32.666H44.5801V33.5449C44.5801 33.8704 44.458 34.1634 44.2139 34.4238C43.9697 34.6842 43.6686 34.8145 43.3105 34.8145H32.6172V31.25C32.6172 30.957 32.5114 30.7129 32.2998 30.5176C32.0882 30.3223 31.8359 30.2246 31.543 30.2246H18.457C18.1641 30.2246 17.9199 30.3223 17.7246 30.5176C17.5293 30.7129 17.4316 30.957 17.4316 31.25V34.8145H6.73828C6.38021 34.8145 6.07096 34.6842 5.81055 34.4238C5.55013 34.1634 5.41992 33.8704 5.41992 33.5449V32.666H10.2051C11.1165 32.666 11.8978 32.3324 12.5488 31.665C13.1999 30.9977 13.5254 30.2083 13.5254 29.2969V27.9785C13.5254 27.0345 13.1999 26.237 12.5488 25.5859C11.8978 24.9349 11.1165 24.6094 10.2051 24.6094H7.66602C7.37305 24.6094 7.12077 24.707 6.90918 24.9023C6.69759 25.0977 6.5918 25.3418 6.5918 25.6348C6.5918 25.9277 6.69759 26.18 6.90918 26.3916C7.12077 26.6032 7.37305 26.709 7.66602 26.709H10.2051C10.5306 26.709 10.8236 26.8311 11.084 27.0752C11.3444 27.3193 11.4746 27.6204 11.4746 27.9785V29.2969C11.4746 29.6224 11.3525 29.9154 11.1084 30.1758C10.8643 30.4362 10.5632 30.5664 10.2051 30.5664H5.41992V27.5391C5.41992 26.9206 5.52572 26.3265 5.7373 25.7568C5.94889 25.1872 6.26628 24.6745 6.68945 24.2188ZM12.8418 38.7695C12.8418 39.0625 12.7441 39.3148 12.5488 39.5264C12.3535 39.738 12.1094 39.8438 11.8164 39.8438H8.25195C7.95898 39.8438 7.70671 39.738 7.49512 39.5264C7.28353 39.3148 7.17773 39.0625 7.17773 38.7695V36.8652H12.8418V38.7695ZM19.4824 34.8145V32.2754H30.5176V34.8145H19.4824ZM42.8223 38.7695C42.8223 39.0625 42.7165 39.3148 42.5049 39.5264C42.2933 39.738 42.041 39.8438 41.748 39.8438H38.1836C37.8906 39.8438 37.6465 39.738 37.4512 39.5264C37.2559 39.3148 37.1582 39.0625 37.1582 38.7695V36.8652H42.8223V38.7695ZM12.5 20.752H37.5C37.793 20.752 38.0452 20.6543 38.2568 20.459C38.4684 20.2637 38.5742 20.0195 38.5742 19.7266C38.5742 19.4336 38.4684 19.1813 38.2568 18.9697C38.0452 18.7581 37.793 18.6523 37.5 18.6523H12.5C12.207 18.6523 11.9548 18.7581 11.7432 18.9697C11.5316 19.1813 11.4258 19.4336 11.4258 19.7266C11.4258 20.0195 11.5316 20.2637 11.7432 20.459C11.9548 20.6543 12.207 20.752 12.5 20.752ZM33.5449 24.5605H16.4551C16.1947 24.5605 15.9587 24.6663 15.7471 24.8779C15.5355 25.0895 15.4297 25.3418 15.4297 25.6348C15.4297 25.9277 15.5355 26.1719 15.7471 26.3672C15.9587 26.5625 16.1947 26.6602 16.4551 26.6602H33.5449C33.8053 26.6602 34.0413 26.5625 34.2529 26.3672C34.4645 26.1719 34.5703 25.9277 34.5703 25.6348C34.5703 25.3418 34.4645 25.0895 34.2529 24.8779C34.0413 24.6663 33.8053 24.5605 33.5449 24.5605Z" fill="white"/>
</svg>
